<svg width="291" height="70" viewBox="0 0 291 70" fill="none" xmlns="http://www.w3.org/2000/svg">
<path d="M81.0645 41.8478C84.3152 41.8478 86.9242 41.1945 88.8917 39.8878C90.8592 38.5812 91.843 36.5217 91.843 33.7096C91.843 31.8348 91.3442 30.2866 90.346 29.0652C89.3767 27.8438 88.008 26.9348 86.2399 26.3383C87.4375 25.6565 88.4067 24.847 89.1484 23.9096C89.89 22.9438 90.2604 21.8217 90.2604 20.5435C90.2604 17.7881 89.3622 15.8281 87.5658 14.6635C85.7694 13.4704 83.2604 12.8739 80.038 12.8739H71.9542V41.8478H81.0645ZM79.9097 15.7287C82.2194 15.7287 83.9447 16.0696 85.0851 16.7513C86.2544 17.433 86.8387 18.7113 86.8387 20.5861C86.8387 22.3188 86.1398 23.5687 84.7429 24.3357C83.3742 25.0742 81.5495 25.4577 79.2681 25.4861H75.3331V15.7287H79.9097ZM81.4495 28.213C83.6453 28.213 85.3562 28.6675 86.5821 29.5765C87.8079 30.4855 88.4212 31.8916 88.4212 33.7948C88.4212 37.2887 85.955 39.0357 81.0218 39.0357H75.3331V28.213H81.4495ZM97.1826 41.8478H100.562V29.96H104.668C105.666 29.96 106.678 29.9032 107.704 29.7896L114.377 41.8478H118.098L110.698 28.8948C112.267 28.2414 113.508 27.2899 114.42 26.04C115.332 24.7617 115.803 23.1852 115.831 21.3104C115.831 18.413 114.862 16.2826 112.923 14.9191C110.984 13.5557 108.375 12.8739 105.095 12.8739H97.1826V41.8478ZM105.138 15.7287C107.448 15.7287 109.23 16.1548 110.485 17.007C111.739 17.8308 112.367 19.3078 112.367 21.4383C112.338 23.4835 111.626 24.9606 110.228 25.8696C108.859 26.7501 107.049 27.1904 104.796 27.1904H100.562V15.7287H105.138ZM129.723 12.8739L118.945 41.8478H122.238L125.275 33.6243H137.551L140.801 42.1461L144.137 41.5922L132.974 12.8739H129.723ZM136.567 30.8974H126.216L131.306 17.3052L136.567 30.8974ZM151.938 41.8478V12.8739H148.559V41.8478H151.938ZM163.216 41.8478V19.0948L164.328 21.0122L179.127 41.8478H181.864V12.8739H178.442V35.3287L176.689 32.4739L162.532 12.8739H159.837V41.8478H163.216ZM232.018 12.8739L224.062 41.8478H220.812L214.139 17.9017L207.852 41.8478H204.601L196.218 13.087L199.554 12.5757L206.269 37.2461L212.557 12.8739H215.85L222.437 37.2461L228.767 12.8739H232.018ZM253.977 41.8478L253.55 39.1635H239.82V28.2983H250.256L249.871 25.7843H239.82V15.3878H252.694L252.309 12.8739H236.441V41.8478H253.977ZM267.94 41.8478C271.191 41.8478 273.8 41.1945 275.767 39.8878C277.735 38.5812 278.718 36.5217 278.718 33.7096C278.718 31.8348 278.22 30.2866 277.221 29.0652C276.252 27.8438 274.884 26.9348 273.115 26.3383C274.313 25.6565 275.282 24.847 276.024 23.9096C276.765 22.9438 277.136 21.8217 277.136 20.5435C277.136 17.7881 276.238 15.8281 274.441 14.6635C272.645 13.4704 270.136 12.8739 266.913 12.8739H258.83V41.8478H267.94ZM266.785 15.7287C269.095 15.7287 270.82 16.0696 271.961 16.7513C273.13 17.433 273.714 18.7113 273.714 20.5861C273.714 22.3188 273.015 23.5687 271.618 24.3357C270.25 25.0742 268.425 25.4577 266.144 25.4861H262.209V15.7287H266.785ZM268.325 28.213C270.521 28.213 272.232 28.6675 273.458 29.5765C274.683 30.4855 275.297 31.8916 275.297 33.7948C275.297 37.2887 272.831 39.0357 267.897 39.0357H262.209V28.213H268.325Z" fill="black"/>
<path d="M35.8977 64.6739C52.3488 64.6739 65.6851 51.3884 65.6851 35C65.6851 18.6115 52.3488 5.32608 35.8977 5.32608C19.4466 5.32608 6.11029 18.6115 6.11029 35C6.11029 51.3884 19.4466 64.6739 35.8977 64.6739Z" fill="#ECB7D7"/>
<path d="M60.1965 18.5985C59.6044 18.063 58.9792 17.5473 58.3384 17.0656C57.921 16.7518 57.3154 16.8196 56.9855 17.2168C56.6558 17.6141 56.727 18.1907 57.1445 18.5044C57.7396 18.9516 58.3198 19.4304 58.8692 19.9276C63.79 24.3789 66.6122 30.6379 66.6122 37.0992V42.0513C66.6122 44.5315 65.5821 46.7856 63.9102 48.4515L62.3839 43.4226C62.7723 43.2502 63.1314 43.0032 63.4361 42.6829L65.3352 40.687C65.6924 40.3117 65.6621 39.7322 65.2678 39.3921C64.8734 39.0524 64.2643 39.081 63.9073 39.4563L62.0081 41.4522C61.5802 41.9019 60.8943 42.0059 60.3404 41.7054L58.2182 40.5534C57.7561 40.3027 57.168 40.4557 56.9044 40.8956C56.6408 41.3353 56.8017 41.8953 57.2639 42.146L59.3861 43.298C59.7259 43.4826 60.0864 43.6029 60.452 43.6642L62.2986 49.7484C60.7453 50.7445 58.8761 51.3267 56.8664 51.3267H37.5689C37.0369 51.3267 36.6057 51.7372 36.6057 52.2434C36.6057 52.7498 37.0369 53.1602 37.5689 53.1602H41.5339C42.0502 53.82 42.9767 55.3051 43.4996 55.8301L47.9121 59.0955C48.2829 59.3698 48.7167 59.5081 49.1522 59.5081C49.5464 59.5081 49.9419 59.3948 50.2934 59.1671C51.0333 58.6878 51.3487 57.85 51.0969 57.0326L49.904 53.1601H56.8666C59.5157 53.1601 61.9611 52.3153 63.9222 50.8946C63.9761 50.8626 64.0262 50.826 64.0718 50.7853C66.79 48.7499 68.5388 45.5913 68.5388 42.0514V37.0993C68.5388 30.138 65.4981 23.3946 60.1965 18.5985ZM49.2482 57.5486C49.257 57.5775 49.2681 57.6135 49.2093 57.6516C49.1503 57.6896 49.1194 57.6668 49.0943 57.6481L44.8016 54.4714L43.864 53.1603H47.8962L49.2482 57.5486Z" fill="black"/>
<path d="M33.2929 51.3269H30.5025C27.3487 51.3269 24.5804 49.3036 23.7707 46.4066C23.4856 45.3871 22.7145 44.547 21.7079 44.1592L12.7818 40.7208C8.9713 39.2529 6.50913 35.7766 6.50913 31.8641C6.50913 28.8215 8.05156 25.9351 10.6349 24.1429L19.5563 17.9541C20.0387 17.6195 20.5315 17.3036 21.0329 17.0047L21.682 21.0978C21.3542 21.2608 21.0489 21.4733 20.7807 21.7359L19.4537 23.0353C19.083 23.3984 19.0916 23.9788 19.4732 24.3317C19.8547 24.6846 20.4644 24.6763 20.8353 24.3133L22.1622 23.0138C22.6182 22.5674 23.3049 22.4287 23.9118 22.6608L28.4736 24.4048C28.2824 25.2008 28.1839 26.0203 28.1839 26.8521V30.7899C28.1839 31.2962 28.615 31.7066 29.1471 31.7066C29.679 31.7066 30.1103 31.2962 30.1103 30.7899V26.8521C30.1103 24.9633 30.7147 23.149 31.8581 21.6053L33.7924 18.9938H38.2478C38.7799 18.9938 39.211 18.5834 39.211 18.0771C39.211 17.5707 38.7799 17.1603 38.2478 17.1603H33.6878L30.5456 14.212C30.1667 13.8565 29.5569 13.8608 29.1834 14.2212C28.8099 14.5817 28.8143 15.1621 29.1931 15.5176L32.0349 18.1841L30.2834 20.5489C29.7919 21.2124 29.3849 21.9181 29.0629 22.6542L24.6295 20.9594C24.2845 20.8276 23.9278 20.7513 23.5712 20.7258L22.8266 16.0307C26.3318 14.3072 30.2078 13.4081 34.2185 13.4081H41.7198C45.8973 13.4081 50.041 14.4197 53.7027 16.3337C54.169 16.5774 54.7546 16.4153 55.0106 15.9715C55.2667 15.5277 55.0963 14.9703 54.63 14.7266C50.6849 12.6646 46.2206 11.5747 41.7198 11.5747H34.2185C28.5027 11.5747 23.0403 13.2684 18.4215 16.4726L9.5003 22.6613C6.42107 24.7972 4.5827 28.2375 4.5827 31.8641C4.5827 36.5272 7.51731 40.6706 12.059 42.4203L20.9852 45.8587C21.4402 46.034 21.777 46.4054 21.909 46.878C22.943 50.5769 26.4767 53.1602 30.5025 53.1602H33.2929C33.8248 53.1602 34.2561 52.7498 34.2561 52.2434C34.2561 51.7371 33.8248 51.3269 33.2929 51.3269Z" fill="black"/>
<path d="M19.6354 31.4005C19.6354 30.8942 19.2042 30.4838 18.6722 30.4838C18.1402 30.4838 17.709 30.8942 17.709 31.4005V32.856C17.709 33.9171 17.2748 34.9146 16.4865 35.6649L14.4693 37.5847C14.0931 37.9428 14.0931 38.5232 14.4693 38.8813C14.7705 39.1456 15.3315 39.2969 15.8315 38.8813L17.8486 36.9614C18.1664 36.6589 18.4432 36.3282 18.6798 35.9763L22.5446 38.3452C22.8527 38.5352 23.4491 38.5834 23.8759 38.0709C24.164 37.6452 24.035 37.0779 23.5877 36.8038L19.4539 34.2699C19.5734 33.813 19.6351 33.3391 19.6351 32.8559V31.4005H19.6354Z" fill="black"/>
<path d="M43.3014 23.744C43.4879 23.744 43.6765 23.6926 43.8423 23.5852L45.0617 22.7956C45.8179 22.3056 46.2694 21.4935 46.2694 20.6229V15.9621C46.2694 15.4558 45.8383 15.0453 45.3062 15.0453C44.7743 15.0453 44.343 15.4558 44.343 15.9621V20.6228C44.343 20.886 44.2065 21.1316 43.9779 21.2796L42.7586 22.0692C42.3188 22.354 42.2049 22.9242 42.5041 23.3428C42.6906 23.6035 42.9932 23.744 43.3014 23.744Z" fill="black"/>
<path d="M37.5689 31.7065C38.1009 31.7065 38.5321 31.2962 38.5321 30.7898V27.0239L40.3012 25.8782C40.7409 25.5934 40.8549 25.0232 40.5557 24.6046C40.2564 24.1861 39.6573 24.0777 39.2177 24.3624L37.4329 25.5182L34.5447 24.5308C34.0443 24.3596 33.4926 24.6073 33.3126 25.0837C33.1328 25.5603 33.3928 26.0853 33.8935 26.2565L36.6058 27.1837V30.7899C36.6057 31.2962 37.0369 31.7065 37.5689 31.7065Z" fill="black"/>
<path d="M37.3343 49.2263V44.163C37.3343 43.6567 36.9031 43.2463 36.3711 43.2463C35.8391 43.2463 35.4078 43.6567 35.4078 44.163V49.2263C35.4078 49.7327 35.8391 50.1431 36.3711 50.1431C36.9031 50.1431 37.3343 49.7327 37.3343 49.2263Z" fill="black"/>
<path d="M45.2816 44.4896L44.1472 47.047C43.724 48.0034 45.2243 48.9211 45.9218 47.76L47.0564 45.2026C47.3096 44.6318 47.9548 44.3151 48.5905 44.4489L51.4776 45.0581C51.9962 45.1673 52.5112 44.8558 52.6264 44.3614C52.7416 43.8671 52.4139 43.3776 51.8944 43.2681L49.0072 42.6589C48.5915 42.5711 48.1747 42.5653 47.7747 42.627L43.5937 38.1713C43.5396 38.1128 43.4828 38.057 43.4249 38.0026V34.3647C43.4249 33.8583 42.9937 33.448 42.4617 33.448C41.9297 33.448 41.4985 33.8583 41.4985 34.3647V37.0733C41.5058 37.026 37.208 36.9076 37.092 36.8968C36.533 36.8779 35.9798 36.9261 35.443 37.0349L32.9055 34.2772C32.5551 33.8963 31.9466 33.858 31.5463 34.1915C31.1462 34.5251 31.1059 35.1042 31.4564 35.4852L33.5215 37.7295C33.1518 37.9296 32.7999 38.1637 32.4712 38.4309L28.5212 41.6432C28.1167 41.9722 28.0689 42.5508 28.4146 42.9358C28.7604 43.3207 29.368 43.366 29.7726 43.0371L33.7227 39.8249C34.6424 39.077 35.8149 38.6894 37.0233 38.729L40.9992 38.8643C41.4385 38.8791 41.857 39.0681 42.1521 39.3875L45.9985 43.4867C45.7003 43.7669 45.453 44.1032 45.2816 44.4896Z" fill="black"/>
<path d="M57.8831 32.9583L60.6615 34.6536C61.1093 34.927 61.7052 34.8028 61.9921 34.3767C62.2792 33.9505 62.149 33.3834 61.7011 33.1102L58.763 31.3174V27.1047C58.763 26.6666 59.1375 26.3102 59.5978 26.3102H61.1813C61.7133 26.3102 62.1446 25.8998 62.1446 25.3935C62.1446 24.8871 61.7133 24.4767 61.1813 24.4767H59.5979C58.0754 24.4767 56.8367 25.6556 56.8367 27.1047V31.397L55.0785 32.8319C54.751 33.0993 54.3341 33.2288 53.9037 33.195C53.4738 33.1618 53.0838 32.9705 52.8058 32.6565L49.4883 28.9087L50.1403 25.0698C50.2252 24.5701 49.8683 24.0994 49.3431 24.0187C48.8183 23.9384 48.3234 24.2776 48.2386 24.7775L47.6282 28.3723L42.8207 29.0704C42.2948 29.1469 41.9336 29.6145 42.0139 30.115C42.0866 30.5685 42.497 30.8934 42.9648 30.8934C43.0132 30.8934 43.0621 30.89 43.1114 30.8828L48.0784 30.1615L51.3326 33.8379C51.7257 34.2819 52.2208 34.6136 52.7755 34.8139V38.2328C52.7755 38.7392 53.2067 39.1496 53.7387 39.1496C54.2707 39.1496 54.7019 38.7392 54.7019 38.2328V34.9729C55.2987 34.8645 55.8586 34.6108 56.3327 34.2238L57.8831 32.9583Z" fill="black"/>
<path d="M78.2492 59.3478C79.5331 59.3478 80.6253 59.0511 81.5258 58.4576C82.4393 57.8641 83.1275 57.0597 83.5911 56.0441C84.0547 55.0154 84.2861 53.8483 84.2861 52.5426C84.2861 50.5643 83.7965 48.962 82.8166 47.7354C81.8367 46.5089 80.3542 45.8957 78.3684 45.8957H73.6421V59.3478H78.2492ZM78.4478 47.2211C79.8509 47.2211 80.9102 47.709 81.6251 48.685C82.353 49.661 82.7173 50.9534 82.7173 52.5624C82.7173 53.6834 82.5317 54.6593 82.1613 55.4902C81.7909 56.3079 81.2677 56.941 80.5925 57.3894C79.9303 57.8246 79.1558 58.0422 78.2691 58.0422H75.2109V47.2211H78.4478ZM88.5335 59.3478V45.8957H86.9647V59.3478H88.5335ZM100.264 53.5911V57.8641C99.522 58.1279 98.7544 58.2598 97.9601 58.2598C96.9931 58.2598 96.1194 58.0356 95.3388 57.5872C94.5704 57.1256 93.9617 56.4727 93.5118 55.6287C93.0749 54.7847 92.8565 53.8021 92.8565 52.6811C92.8565 51.5073 93.1009 50.4918 93.5912 49.6346C94.0938 48.7641 94.7491 48.1047 95.5572 47.6563C96.3775 47.1947 97.2582 46.9639 98.1984 46.9639C98.8071 46.9639 99.3036 47.0101 99.6877 47.1024C100.071 47.1815 100.528 47.32 101.058 47.5178L101.554 46.3902C101.17 46.1528 100.627 45.9682 99.926 45.8363C99.2371 45.6912 98.6482 45.6187 98.1586 45.6187C96.861 45.6187 95.6825 45.9221 94.6239 46.5287C93.5645 47.1222 92.7305 47.9597 92.1217 49.0411C91.5122 50.1094 91.2083 51.3293 91.2083 52.7009C91.2083 54.0065 91.4863 55.1869 92.0423 56.242C92.5983 57.2838 93.3858 58.1081 94.4054 58.7148C95.4381 59.3214 96.6296 59.6248 97.9799 59.6248C98.6414 59.6248 99.3303 59.5325 100.045 59.3478C100.76 59.1764 101.329 58.9588 101.753 58.695L101.773 52.4239H97.4239L97.2849 53.5911H100.264ZM106.22 59.3478V45.8957H104.652V59.3478H106.22ZM118.843 45.8957H108.239V47.1222H112.767V59.3478H114.355V47.1222H119.022L118.843 45.8957ZM124.433 45.8957L119.428 59.3478H120.957L122.367 55.5298H128.067L129.576 59.4863L131.125 59.2291L125.942 45.8957H124.433ZM127.61 54.2637H122.804L125.167 47.953L127.61 54.2637ZM141.022 58.1015H134.747V45.8957H133.178V59.3478H141.181L141.022 58.1015ZM147.084 58.695C147.442 58.9324 148.004 59.1434 148.772 59.328C149.54 59.5127 150.215 59.605 150.798 59.605C151.777 59.605 152.625 59.4534 153.339 59.15C154.067 58.8466 154.617 58.4312 154.988 57.9037C155.372 57.3762 155.564 56.7695 155.564 56.0837C155.564 55.4507 155.431 54.9099 155.166 54.4615C154.901 53.9999 154.511 53.5911 153.995 53.235C153.491 52.8789 152.823 52.5097 151.989 52.1272C151.063 51.7051 150.361 51.3557 149.884 51.0787C149.407 50.8017 149.037 50.4984 148.772 50.1687C148.521 49.8258 148.395 49.417 148.395 48.9422C148.395 48.3091 148.653 47.8146 149.169 47.4585C149.698 47.1024 150.4 46.9244 151.274 46.9244C151.857 46.9244 152.347 46.9837 152.744 47.1024C153.154 47.2211 153.604 47.3925 154.094 47.6167L154.63 46.41C154.167 46.1726 153.63 45.9748 153.022 45.8165C152.426 45.6583 151.81 45.5791 151.175 45.5791C150.314 45.5791 149.553 45.7308 148.891 46.0341C148.243 46.3243 147.739 46.7265 147.382 47.2409C147.037 47.7552 146.866 48.3289 146.866 48.962C146.866 49.8588 147.151 50.6171 147.72 51.237C148.302 51.8568 149.209 52.4305 150.44 52.958C151.301 53.3273 151.976 53.6571 152.466 53.9472C152.969 54.2241 153.352 54.5407 153.617 54.8967C153.882 55.2397 154.015 55.6419 154.015 56.1035C154.015 56.7497 153.73 57.2773 153.161 57.6861C152.605 58.0817 151.81 58.2796 150.778 58.2796C150.195 58.2796 149.599 58.2004 148.99 58.0422C148.395 57.8707 147.885 57.6795 147.461 57.4685L147.084 58.695ZM166.996 45.8957H156.391V47.1222H160.919V59.3478H162.508V47.1222H167.175L166.996 45.8957ZM169.031 45.8957V54.5802C169.031 55.5429 169.236 56.4002 169.646 57.152C170.07 57.9037 170.666 58.4972 171.433 58.9324C172.215 59.3676 173.121 59.5852 174.154 59.5852C175.187 59.5852 176.087 59.3742 176.855 58.9522C177.636 58.517 178.232 57.9169 178.642 57.152C179.066 56.3871 179.277 55.5298 179.277 54.5802V45.8957H177.689V54.4022C177.689 55.5496 177.371 56.4793 176.736 57.1915C176.1 57.9037 175.24 58.2598 174.154 58.2598C173.082 58.2598 172.222 57.9037 171.572 57.1915C170.924 56.4793 170.599 55.5496 170.599 54.4022V45.8957H169.031ZM187.373 59.3478C188.657 59.3478 189.749 59.0511 190.649 58.4576C191.563 57.8641 192.251 57.0597 192.715 56.0441C193.178 55.0154 193.41 53.8483 193.41 52.5426C193.41 50.5643 192.92 48.962 191.94 47.7354C190.96 46.5089 189.478 45.8957 187.492 45.8957H182.766V59.3478H187.373ZM187.571 47.2211C188.974 47.2211 190.034 47.709 190.749 48.685C191.476 49.661 191.841 50.9534 191.841 52.5624C191.841 53.6834 191.655 54.6593 191.285 55.4902C190.914 56.3079 190.391 56.941 189.716 57.3894C189.054 57.8246 188.279 58.0422 187.393 58.0422H184.334V47.2211H187.571ZM197.657 59.3478V45.8957H196.088V59.3478H197.657ZM206.706 45.5791C205.488 45.6055 204.396 45.9286 203.43 46.5485C202.463 47.1684 201.702 48.0124 201.146 49.0807C200.603 50.1489 200.332 51.349 200.332 52.6811C200.332 54.0131 200.603 55.2066 201.146 56.2617C201.689 57.3168 202.437 58.1411 203.39 58.7346C204.343 59.328 205.422 59.6248 206.627 59.6248C207.845 59.6116 208.943 59.2951 209.923 58.6752C210.903 58.0553 211.664 57.2113 212.207 56.143C212.763 55.0616 213.041 53.8549 213.041 52.5228C213.041 51.1908 212.77 49.9973 212.227 48.9422C211.684 47.8871 210.929 47.0628 209.963 46.4694C208.997 45.8759 207.911 45.5791 206.706 45.5791ZM201.98 52.6613C201.98 51.5666 202.185 50.5908 202.596 49.7335C203.006 48.863 203.569 48.1838 204.284 47.6959C205.011 47.1947 205.832 46.9441 206.746 46.9441C207.633 46.9441 208.421 47.1881 209.109 47.6761C209.811 48.1509 210.36 48.8169 210.757 49.6741C211.154 50.5182 211.353 51.4743 211.353 52.5426C211.353 53.6373 211.148 54.6198 210.737 55.4902C210.327 56.3607 209.758 57.0399 209.03 57.5278C208.315 58.0158 207.501 58.2598 206.587 58.2598C205.7 58.2598 204.906 58.0224 204.204 57.5476C203.516 57.0597 202.973 56.3936 202.576 55.5496C202.179 54.6923 201.98 53.7296 201.98 52.6613ZM221.831 58.1015H214.463L214.642 59.3478H222.009L221.831 58.1015Z" fill="black"/>
</svg>
