<svg width="561" height="864" viewBox="0 0 561 864" fill="none" xmlns="http://www.w3.org/2000/svg">
<path opacity="0.6" d="M440.993 158.881C349.666 74.9811 -73.4711 -37.5755 -134.488 265.781L-16.4692 775.272L393.542 621.075C383.202 606.168 335.389 566.866 226.862 528.908C118.335 490.951 221.144 409.49 286.114 373.504C375.794 336.922 532.321 242.782 440.993 158.881Z" fill="url(#paint0_linear)" fill-opacity="0.6"/>
<path d="M420.097 166.297C328.77 82.3966 -94.3671 -30.1599 -155.384 273.197L-40.7041 603.366L36.5794 568.251C67.7736 554.077 101.74 547.052 135.998 547.689L171.421 548.348C199.816 548.875 227.731 555.762 253.114 568.501L372.647 628.49C362.306 613.584 331.253 576.298 222.726 538.34C114.199 500.383 200.248 416.906 265.218 380.92C354.898 344.337 511.425 250.197 420.097 166.297Z" fill="url(#paint1_linear)" fill-opacity="0.9"/>
<g opacity="0.6">
<path d="M328 291.912L317.088 281L299.489 298.598L281.891 281L271 291.912L288.598 309.489L271 327.088L281.891 338L299.489 320.402L317.088 338L328 327.088L310.402 309.489L328 291.912Z" fill="white"/>
</g>
<g opacity="0.2">
<g clip-path="url(#clip0)">
<path d="M7.27197 669C6.83111 669.467 6.25434 669.799 5.61501 669.954C4.97567 670.108 4.30267 670.078 3.68158 669.866C3.06049 669.655 2.51938 669.272 2.12708 668.766C1.73477 668.261 1.50899 667.655 1.47844 667.027C1.4479 666.399 1.61397 665.776 1.95555 665.238C2.29712 664.7 2.79876 664.271 3.39667 664.006C3.99457 663.74 4.66173 663.651 5.31329 663.748C5.96485 663.845 6.57137 664.125 7.05572 664.552C7.69746 665.117 8.07993 665.901 8.1204 666.733C8.16086 667.566 7.85608 668.38 7.27197 669V669Z" fill="#4ED0EF"/>
<path d="M7.27197 669C6.83111 669.467 6.25434 669.799 5.61501 669.954C4.97567 670.108 4.30267 670.078 3.68158 669.866C3.06049 669.655 2.51938 669.272 2.12708 668.766C1.73477 668.261 1.50899 667.655 1.47844 667.027C1.4479 666.399 1.61397 665.776 1.95555 665.238C2.29712 664.7 2.79876 664.271 3.39667 664.006C3.99457 663.74 4.66173 663.651 5.31329 663.748C5.96485 663.845 6.57137 664.125 7.05572 664.552C7.69746 665.117 8.07993 665.901 8.1204 666.733C8.16086 667.566 7.85608 668.38 7.27197 669V669Z" fill="#4ED0EF"/>
<path d="M19.3608 679.36C18.9226 679.825 18.35 680.156 17.7151 680.311C17.0801 680.467 16.4111 680.44 15.7922 680.234C15.1733 680.028 14.6321 679.652 14.2367 679.153C13.8413 678.654 13.6092 678.055 13.5698 677.431C13.5303 676.807 13.6852 676.186 14.0149 675.646C14.3447 675.106 14.8346 674.67 15.423 674.395C16.0115 674.119 16.6722 674.016 17.3222 674.097C17.9721 674.179 18.5823 674.442 19.0759 674.853C19.4076 675.13 19.6784 675.466 19.8725 675.843C20.0667 676.22 20.1803 676.63 20.2068 677.05C20.2333 677.469 20.1722 677.889 20.027 678.286C19.8817 678.682 19.6553 679.048 19.3608 679.36V679.36Z" fill="#4ED0EF"/>
<path d="M19.3608 679.36C18.9226 679.825 18.35 680.156 17.7151 680.311C17.0801 680.467 16.4111 680.44 15.7922 680.234C15.1733 680.028 14.6321 679.652 14.2367 679.153C13.8413 678.654 13.6092 678.055 13.5698 677.431C13.5303 676.807 13.6852 676.186 14.0149 675.646C14.3447 675.106 14.8346 674.67 15.423 674.395C16.0115 674.119 16.6722 674.016 17.3222 674.097C17.9721 674.179 18.5823 674.442 19.0759 674.853C19.4076 675.13 19.6784 675.466 19.8725 675.843C20.0667 676.22 20.1803 676.63 20.2068 677.05C20.2333 677.469 20.1722 677.889 20.027 678.286C19.8817 678.682 19.6553 679.048 19.3608 679.36V679.36Z" fill="#4ED0EF"/>
<path d="M31.4499 689.72C31.0104 690.187 30.4358 690.518 29.7986 690.673C29.1615 690.828 28.4904 690.799 27.8704 690.591C27.2504 690.382 26.7092 690.003 26.3153 689.501C25.9213 688.998 25.6924 688.396 25.6573 687.77C25.6223 687.144 25.7827 686.522 26.1184 685.983C26.454 685.444 26.9498 685.011 27.543 684.741C28.1362 684.47 28.8002 684.374 29.451 684.463C30.1018 684.552 30.7103 684.824 31.1993 685.243C31.8551 685.805 32.25 686.592 32.297 687.432C32.344 688.272 32.0393 689.095 31.4499 689.72V689.72Z" fill="#4ED0EF"/>
<path d="M31.4499 689.72C31.0104 690.187 30.4358 690.518 29.7986 690.673C29.1615 690.828 28.4904 690.799 27.8704 690.591C27.2504 690.382 26.7092 690.003 26.3153 689.501C25.9213 688.998 25.6924 688.396 25.6573 687.77C25.6223 687.144 25.7827 686.522 26.1184 685.983C26.454 685.444 26.9498 685.011 27.543 684.741C28.1362 684.47 28.8002 684.374 29.451 684.463C30.1018 684.552 30.7103 684.824 31.1993 685.243C31.8551 685.805 32.25 686.592 32.297 687.432C32.344 688.272 32.0393 689.095 31.4499 689.72V689.72Z" fill="#4ED0EF"/>
<path d="M43.539 700.081C43.0995 700.547 42.5249 700.879 41.8877 701.034C41.2506 701.189 40.5796 701.16 39.9595 700.951C39.3395 700.742 38.7983 700.363 38.4044 699.861C38.0105 699.359 37.7815 698.757 37.7464 698.13C37.7114 697.504 37.8718 696.882 38.2075 696.343C38.5431 695.804 39.0389 695.372 39.6321 695.101C40.2253 694.831 40.8893 694.734 41.5401 694.823C42.191 694.913 42.7994 695.184 43.2884 695.603C43.9443 696.165 44.3391 696.953 44.3861 697.793C44.4331 698.632 44.1284 699.455 43.539 700.081V700.081Z" fill="#4ED0EF"/>
<path d="M43.539 700.081C43.0995 700.547 42.5249 700.879 41.8877 701.034C41.2506 701.189 40.5796 701.16 39.9595 700.951C39.3395 700.742 38.7983 700.363 38.4044 699.861C38.0105 699.359 37.7815 698.757 37.7464 698.13C37.7114 697.504 37.8718 696.882 38.2075 696.343C38.5431 695.804 39.0389 695.372 39.6321 695.101C40.2253 694.831 40.8893 694.734 41.5401 694.823C42.191 694.913 42.7994 695.184 43.2884 695.603C43.9443 696.165 44.3391 696.953 44.3861 697.793C44.4331 698.632 44.1284 699.455 43.539 700.081V700.081Z" fill="#4ED0EF"/>
<path d="M55.6281 710.441C55.1883 710.908 54.6131 711.239 53.9754 711.394C53.3377 711.549 52.6662 711.52 52.0459 711.31C51.4256 711.101 50.8844 710.721 50.4909 710.218C50.0974 709.715 49.8692 709.112 49.8353 708.485C49.8013 707.859 49.9632 707.236 50.3003 706.697C50.6374 706.159 51.1347 705.727 51.7291 705.458C52.3234 705.189 52.9882 705.094 53.6392 705.185C54.2903 705.276 54.8982 705.55 55.3861 705.971C55.7104 706.249 55.974 706.585 56.1618 706.961C56.3496 707.336 56.4578 707.743 56.4803 708.158C56.5028 708.573 56.4391 708.989 56.2928 709.381C56.1466 709.772 55.9207 710.133 55.6281 710.441V710.441Z" fill="#4ED0EF"/>
<path d="M55.6281 710.441C55.1883 710.908 54.6131 711.239 53.9754 711.394C53.3377 711.549 52.6662 711.52 52.0459 711.31C51.4256 711.101 50.8844 710.721 50.4909 710.218C50.0974 709.715 49.8692 709.112 49.8353 708.485C49.8013 707.859 49.9632 707.236 50.3003 706.697C50.6374 706.159 51.1347 705.727 51.7291 705.458C52.3234 705.189 52.9882 705.094 53.6392 705.185C54.2903 705.276 54.8982 705.55 55.3861 705.971C55.7104 706.249 55.974 706.585 56.1618 706.961C56.3496 707.336 56.4578 707.743 56.4803 708.158C56.5028 708.573 56.4391 708.989 56.2928 709.381C56.1466 709.772 55.9207 710.133 55.6281 710.441V710.441Z" fill="#4ED0EF"/>
<path d="M8.35034 691.044C7.91211 691.509 7.33952 691.84 6.70456 691.996C6.0696 692.151 5.40062 692.124 4.78172 691.918C4.16282 691.712 3.62163 691.336 3.22619 690.837C2.83076 690.339 2.59872 689.74 2.55927 689.116C2.51982 688.492 2.6747 687.87 3.00445 687.33C3.3342 686.79 3.8241 686.354 4.41255 686.079C5.001 685.803 5.66173 685.7 6.31168 685.781C6.96163 685.863 7.57177 686.126 8.0654 686.537C8.3971 686.814 8.66789 687.15 8.86203 687.527C9.05617 687.905 9.1698 688.315 9.19631 688.734C9.22282 689.153 9.16169 689.573 9.01646 689.97C8.87123 690.367 8.6448 690.732 8.35034 691.044V691.044Z" fill="#4ED0EF"/>
<path d="M8.35034 691.044C7.91211 691.509 7.33952 691.84 6.70456 691.996C6.0696 692.151 5.40062 692.124 4.78172 691.918C4.16282 691.712 3.62163 691.336 3.22619 690.837C2.83076 690.339 2.59872 689.74 2.55927 689.116C2.51982 688.492 2.6747 687.87 3.00445 687.33C3.3342 686.79 3.8241 686.354 4.41255 686.079C5.001 685.803 5.66173 685.7 6.31168 685.781C6.96163 685.863 7.57177 686.126 8.0654 686.537C8.3971 686.814 8.66789 687.15 8.86203 687.527C9.05617 687.905 9.1698 688.315 9.19631 688.734C9.22282 689.153 9.16169 689.573 9.01646 689.97C8.87123 690.367 8.6448 690.732 8.35034 691.044V691.044Z" fill="#4ED0EF"/>
<path d="M20.4394 701.404C19.9999 701.871 19.4253 702.203 18.7881 702.357C18.151 702.512 17.48 702.484 16.8599 702.275C16.2399 702.066 15.6987 701.687 15.3048 701.185C14.9108 700.683 14.6819 700.08 14.6468 699.454C14.6118 698.828 14.7722 698.206 15.1079 697.667C15.4435 697.128 15.9393 696.696 16.5325 696.425C17.1257 696.155 17.7897 696.058 18.4405 696.147C19.0914 696.237 19.6998 696.508 20.1888 696.927C20.8446 697.489 21.2395 698.277 21.2865 699.116C21.3335 699.956 21.0288 700.779 20.4394 701.404V701.404Z" fill="#4ED0EF"/>
<path d="M20.4394 701.404C19.9999 701.871 19.4253 702.203 18.7881 702.357C18.151 702.512 17.48 702.484 16.8599 702.275C16.2399 702.066 15.6987 701.687 15.3048 701.185C14.9108 700.683 14.6819 700.08 14.6468 699.454C14.6118 698.828 14.7722 698.206 15.1079 697.667C15.4435 697.128 15.9393 696.696 16.5325 696.425C17.1257 696.155 17.7897 696.058 18.4405 696.147C19.0914 696.237 19.6998 696.508 20.1888 696.927C20.8446 697.489 21.2395 698.277 21.2865 699.116C21.3335 699.956 21.0288 700.779 20.4394 701.404V701.404Z" fill="#4ED0EF"/>
<path d="M32.5285 711.765C32.089 712.231 31.5144 712.563 30.8772 712.718C30.2401 712.873 29.5691 712.844 28.949 712.635C28.329 712.427 27.7878 712.047 27.3939 711.545C27 711.043 26.771 710.441 26.7359 709.815C26.7009 709.189 26.8613 708.566 27.197 708.027C27.5326 707.488 28.0284 707.056 28.6216 706.785C29.2148 706.515 29.8788 706.418 30.5296 706.508C31.1805 706.597 31.7889 706.868 32.2779 707.288C32.9338 707.85 33.3286 708.637 33.3756 709.477C33.4226 710.316 33.1179 711.139 32.5285 711.765V711.765Z" fill="#4ED0EF"/>
<path d="M32.5285 711.765C32.089 712.231 31.5144 712.563 30.8772 712.718C30.2401 712.873 29.5691 712.844 28.949 712.635C28.329 712.427 27.7878 712.047 27.3939 711.545C27 711.043 26.771 710.441 26.7359 709.815C26.7009 709.189 26.8613 708.566 27.197 708.027C27.5326 707.488 28.0284 707.056 28.6216 706.785C29.2148 706.515 29.8788 706.418 30.5296 706.508C31.1805 706.597 31.7889 706.868 32.2779 707.288C32.9338 707.85 33.3286 708.637 33.3756 709.477C33.4226 710.316 33.1179 711.139 32.5285 711.765V711.765Z" fill="#4ED0EF"/>
<path d="M44.6176 722.125C44.1778 722.592 43.6026 722.924 42.9649 723.078C42.3272 723.233 41.6557 723.204 41.0354 722.995C40.4151 722.785 39.8739 722.405 39.4804 721.902C39.0869 721.399 38.8587 720.796 38.8248 720.169C38.7908 719.543 38.9527 718.921 39.2898 718.382C39.6269 717.843 40.1242 717.411 40.7186 717.142C41.3129 716.873 41.9777 716.778 42.6288 716.869C43.2798 716.961 43.8877 717.234 44.3756 717.655C44.6999 717.933 44.9636 718.269 45.1513 718.645C45.3391 719.02 45.4473 719.427 45.4698 719.842C45.4923 720.258 45.4286 720.673 45.2823 721.065C45.1361 721.456 44.9102 721.817 44.6176 722.125V722.125Z" fill="#4ED0EF"/>
<path d="M44.6176 722.125C44.1778 722.592 43.6026 722.924 42.9649 723.078C42.3272 723.233 41.6557 723.204 41.0354 722.995C40.4151 722.785 39.8739 722.405 39.4804 721.902C39.0869 721.399 38.8587 720.796 38.8248 720.169C38.7908 719.543 38.9527 718.921 39.2898 718.382C39.6269 717.843 40.1242 717.411 40.7186 717.142C41.3129 716.873 41.9777 716.778 42.6288 716.869C43.2798 716.961 43.8877 717.234 44.3756 717.655C44.6999 717.933 44.9636 718.269 45.1513 718.645C45.3391 719.02 45.4473 719.427 45.4698 719.842C45.4923 720.258 45.4286 720.673 45.2823 721.065C45.1361 721.456 44.9102 721.817 44.6176 722.125V722.125Z" fill="#4ED0EF"/>
<path d="M9.42892 713.089C8.98941 713.555 8.41476 713.887 7.77761 714.042C7.14047 714.197 6.46945 714.168 5.84942 713.959C5.2294 713.75 4.6882 713.371 4.29427 712.869C3.90034 712.367 3.67139 711.765 3.63634 711.139C3.60129 710.512 3.76174 709.89 4.09739 709.351C4.43303 708.812 4.92881 708.38 5.52201 708.109C6.11522 707.839 6.77922 707.742 7.43003 707.831C8.08085 707.921 8.68926 708.192 9.17833 708.611C9.83414 709.173 10.229 709.961 10.276 710.801C10.323 711.64 10.0183 712.463 9.42892 713.089V713.089Z" fill="#4ED0EF"/>
<path d="M9.42892 713.089C8.98941 713.555 8.41476 713.887 7.77761 714.042C7.14047 714.197 6.46945 714.168 5.84942 713.959C5.2294 713.75 4.6882 713.371 4.29427 712.869C3.90034 712.367 3.67139 711.765 3.63634 711.139C3.60129 710.512 3.76174 709.89 4.09739 709.351C4.43303 708.812 4.92881 708.38 5.52201 708.109C6.11522 707.839 6.77922 707.742 7.43003 707.831C8.08085 707.921 8.68926 708.192 9.17833 708.611C9.83414 709.173 10.229 709.961 10.276 710.801C10.323 711.64 10.0183 712.463 9.42892 713.089V713.089Z" fill="#4ED0EF"/>
<path d="M21.518 723.449C21.0785 723.915 20.5039 724.247 19.8667 724.402C19.2296 724.557 18.5586 724.528 17.9385 724.319C17.3185 724.111 16.7773 723.731 16.3834 723.229C15.9895 722.727 15.7605 722.125 15.7254 721.499C15.6904 720.873 15.8509 720.251 16.1865 719.711C16.5221 719.172 17.0179 718.74 17.6111 718.47C18.2043 718.199 18.8683 718.102 19.5191 718.192C20.17 718.281 20.7784 718.553 21.2674 718.972C21.9233 719.534 22.3181 720.321 22.3651 721.161C22.4121 722.001 22.1074 722.824 21.518 723.449V723.449Z" fill="#4ED0EF"/>
<path d="M21.518 723.449C21.0785 723.915 20.5039 724.247 19.8667 724.402C19.2296 724.557 18.5586 724.528 17.9385 724.319C17.3185 724.111 16.7773 723.731 16.3834 723.229C15.9895 722.727 15.7605 722.125 15.7254 721.499C15.6904 720.873 15.8509 720.251 16.1865 719.711C16.5221 719.172 17.0179 718.74 17.6111 718.47C18.2043 718.199 18.8683 718.102 19.5191 718.192C20.17 718.281 20.7784 718.553 21.2674 718.972C21.9233 719.534 22.3181 720.321 22.3651 721.161C22.4121 722.001 22.1074 722.824 21.518 723.449V723.449Z" fill="#4ED0EF"/>
<path d="M33.6069 733.809C33.1671 734.276 32.5919 734.608 31.9542 734.763C31.3165 734.917 30.645 734.888 30.0247 734.679C29.4044 734.469 28.8632 734.089 28.4697 733.586C28.0761 733.083 27.8479 732.48 27.814 731.854C27.7801 731.227 27.9419 730.605 28.2791 730.066C28.6162 729.527 29.1134 729.096 29.7078 728.826C30.3022 728.557 30.967 728.462 31.618 728.554C32.269 728.645 32.877 728.918 33.3649 729.339C33.6892 729.617 33.9528 729.954 34.1406 730.329C34.3283 730.704 34.4365 731.111 34.459 731.526C34.4815 731.942 34.4178 732.357 34.2716 732.749C34.1254 733.141 33.8995 733.501 33.6069 733.809V733.809Z" fill="#4ED0EF"/>
<path d="M33.6069 733.809C33.1671 734.276 32.5919 734.608 31.9542 734.763C31.3165 734.917 30.645 734.888 30.0247 734.679C29.4044 734.469 28.8632 734.089 28.4697 733.586C28.0761 733.083 27.8479 732.48 27.814 731.854C27.7801 731.227 27.9419 730.605 28.2791 730.066C28.6162 729.527 29.1134 729.096 29.7078 728.826C30.3022 728.557 30.967 728.462 31.618 728.554C32.269 728.645 32.877 728.918 33.3649 729.339C33.6892 729.617 33.9528 729.954 34.1406 730.329C34.3283 730.704 34.4365 731.111 34.459 731.526C34.4815 731.942 34.4178 732.357 34.2716 732.749C34.1254 733.141 33.8995 733.501 33.6069 733.809V733.809Z" fill="#4ED0EF"/>
<path d="M-1.57388 724.765C-2.01201 725.233 -2.58598 725.567 -3.2231 725.724C-3.86022 725.88 -4.53184 725.853 -5.1529 725.646C-5.77396 725.439 -6.31653 725.06 -6.71189 724.559C-7.10725 724.057 -7.33763 723.455 -7.37385 722.828C-7.41006 722.202 -7.25048 721.579 -6.91532 721.039C-6.58016 720.499 -6.0845 720.066 -5.4911 719.795C-4.8977 719.524 -4.23325 719.426 -3.58191 719.516C-2.93056 719.605 -2.32162 719.876 -1.83219 720.296C-1.17785 720.856 -0.783253 721.642 -0.734837 722.479C-0.686421 723.317 -0.988132 724.139 -1.57388 724.765V724.765Z" fill="#4ED0EF"/>
<path d="M-1.57388 724.765C-2.01201 725.233 -2.58598 725.567 -3.2231 725.724C-3.86022 725.88 -4.53184 725.853 -5.1529 725.646C-5.77396 725.439 -6.31653 725.06 -6.71189 724.559C-7.10725 724.057 -7.33763 723.455 -7.37385 722.828C-7.41006 722.202 -7.25048 721.579 -6.91532 721.039C-6.58016 720.499 -6.0845 720.066 -5.4911 719.795C-4.8977 719.524 -4.23325 719.426 -3.58191 719.516C-2.93056 719.605 -2.32162 719.876 -1.83219 720.296C-1.17785 720.856 -0.783253 721.642 -0.734837 722.479C-0.686421 723.317 -0.988132 724.139 -1.57388 724.765V724.765Z" fill="#4ED0EF"/>
<path d="M10.515 735.125C10.0769 735.593 9.5029 735.927 8.86578 736.084C8.22865 736.241 7.55703 736.214 6.93597 736.006C6.31491 735.799 5.77234 735.421 5.37698 734.919C4.98162 734.417 4.75124 733.815 4.71503 733.189C4.67881 732.562 4.83839 731.939 5.17354 731.399C5.5087 730.859 6.00437 730.426 6.59777 730.155C7.19117 729.884 7.85561 729.787 8.50696 729.876C9.1583 729.965 9.76725 730.237 10.2567 730.656C10.911 731.217 11.3056 732.002 11.354 732.84C11.4025 733.677 11.1007 734.499 10.515 735.125V735.125Z" fill="#4ED0EF"/>
<path d="M10.515 735.125C10.0769 735.593 9.5029 735.927 8.86578 736.084C8.22865 736.241 7.55703 736.214 6.93597 736.006C6.31491 735.799 5.77234 735.421 5.37698 734.919C4.98162 734.417 4.75124 733.815 4.71503 733.189C4.67881 732.562 4.83839 731.939 5.17354 731.399C5.5087 730.859 6.00437 730.426 6.59777 730.155C7.19117 729.884 7.85561 729.787 8.50696 729.876C9.1583 729.965 9.76725 730.237 10.2567 730.656C10.911 731.217 11.3056 732.002 11.354 732.84C11.4025 733.677 11.1007 734.499 10.515 735.125V735.125Z" fill="#4ED0EF"/>
<path d="M22.6041 745.485C22.1656 745.954 21.5911 746.288 20.9535 746.445C20.3158 746.601 19.6437 746.574 19.0223 746.366C18.401 746.158 17.8585 745.779 17.4635 745.276C17.0685 744.774 16.8389 744.171 16.8038 743.543C16.7687 742.916 16.9297 742.293 17.2663 741.754C17.603 741.214 18.1001 740.782 18.6947 740.512C19.2893 740.242 19.9545 740.146 20.6061 740.238C21.2576 740.329 21.8661 740.602 22.3544 741.024C23.0079 741.584 23.4014 742.368 23.4482 743.205C23.495 744.042 23.1914 744.862 22.6041 745.485V745.485Z" fill="#4ED0EF"/>
<path d="M22.6041 745.485C22.1656 745.954 21.5911 746.288 20.9535 746.445C20.3158 746.601 19.6437 746.574 19.0223 746.366C18.401 746.158 17.8585 745.779 17.4635 745.276C17.0685 744.774 16.8389 744.171 16.8038 743.543C16.7687 742.916 16.9297 742.293 17.2663 741.754C17.603 741.214 18.1001 740.782 18.6947 740.512C19.2893 740.242 19.9545 740.146 20.6061 740.238C21.2576 740.329 21.8661 740.602 22.3544 741.024C23.0079 741.584 23.4014 742.368 23.4482 743.205C23.495 744.042 23.1914 744.862 22.6041 745.485V745.485Z" fill="#4ED0EF"/>
<path d="M-0.533977 746.85C-0.973482 747.317 -1.54814 747.648 -2.18529 747.803C-2.82243 747.958 -3.49345 747.929 -4.11348 747.721C-4.73351 747.512 -5.2747 747.133 -5.66863 746.63C-6.06255 746.128 -6.29152 745.526 -6.32656 744.9C-6.36161 744.274 -6.20116 743.652 -5.86551 743.113C-5.52986 742.573 -5.03409 742.141 -4.44088 741.871C-3.84768 741.6 -3.18368 741.504 -2.53286 741.593C-1.88204 741.682 -1.27363 741.954 -0.784562 742.373C-0.128745 742.935 0.26609 743.722 0.313084 744.562C0.360078 745.402 0.0553805 746.225 -0.533977 746.85V746.85Z" fill="#4ED0EF"/>
<path d="M-0.533977 746.85C-0.973482 747.317 -1.54814 747.648 -2.18529 747.803C-2.82243 747.958 -3.49345 747.929 -4.11348 747.721C-4.73351 747.512 -5.2747 747.133 -5.66863 746.63C-6.06255 746.128 -6.29152 745.526 -6.32656 744.9C-6.36161 744.274 -6.20116 743.652 -5.86551 743.113C-5.52986 742.573 -5.03409 742.141 -4.44088 741.871C-3.84768 741.6 -3.18368 741.504 -2.53286 741.593C-1.88204 741.682 -1.27363 741.954 -0.784562 742.373C-0.128745 742.935 0.26609 743.722 0.313084 744.562C0.360078 745.402 0.0553805 746.225 -0.533977 746.85V746.85Z" fill="#4ED0EF"/>
<path d="M11.5551 757.211C11.1153 757.677 10.5401 758.009 9.90242 758.164C9.26473 758.319 8.59321 758.289 7.97291 758.08C7.35261 757.871 6.81143 757.49 6.4179 756.987C6.02437 756.485 5.79618 755.882 5.76225 755.255C5.72833 754.628 5.89017 754.006 6.2273 753.467C6.56443 752.928 7.06167 752.497 7.65605 752.228C8.25044 751.958 8.91523 751.863 9.56625 751.955C10.2173 752.046 10.8252 752.32 11.3131 752.741C11.6374 753.019 11.901 753.355 12.0888 753.73C12.2766 754.105 12.3848 754.512 12.4073 754.928C12.4298 755.343 12.3661 755.758 12.2198 756.15C12.0736 756.542 11.8477 756.902 11.5551 757.211V757.211Z" fill="#4ED0EF"/>
<path d="M11.5551 757.211C11.1153 757.677 10.5401 758.009 9.90242 758.164C9.26473 758.319 8.59321 758.289 7.97291 758.08C7.35261 757.871 6.81143 757.49 6.4179 756.987C6.02437 756.485 5.79618 755.882 5.76225 755.255C5.72833 754.628 5.89017 754.006 6.2273 753.467C6.56443 752.928 7.06167 752.497 7.65605 752.228C8.25044 751.958 8.91523 751.863 9.56625 751.955C10.2173 752.046 10.8252 752.32 11.3131 752.741C11.6374 753.019 11.901 753.355 12.0888 753.73C12.2766 754.105 12.3848 754.512 12.4073 754.928C12.4298 755.343 12.3661 755.758 12.2198 756.15C12.0736 756.542 11.8477 756.902 11.5551 757.211V757.211Z" fill="#4ED0EF"/>
</g>
<g clip-path="url(#clip1)">
<path d="M56.143 710.882C55.7035 711.349 55.1289 711.68 54.4917 711.835C53.8546 711.99 53.1836 711.962 52.5635 711.753C51.9435 711.544 51.4023 711.165 51.0084 710.663C50.6145 710.161 50.3855 709.558 50.3504 708.932C50.3154 708.306 50.4758 707.684 50.8115 707.145C51.1471 706.606 51.6429 706.174 52.2361 705.903C52.8293 705.633 53.4933 705.536 54.1441 705.625C54.795 705.715 55.4034 705.986 55.8924 706.405C56.5483 706.967 56.9431 707.755 56.9901 708.594C57.0371 709.434 56.7324 710.257 56.143 710.882Z" fill="#4ED0EF"/>
<path d="M56.143 710.882C55.7035 711.349 55.1289 711.68 54.4917 711.835C53.8546 711.99 53.1836 711.962 52.5635 711.753C51.9435 711.544 51.4023 711.165 51.0084 710.663C50.6145 710.161 50.3855 709.558 50.3504 708.932C50.3154 708.306 50.4758 707.684 50.8115 707.145C51.1471 706.606 51.6429 706.174 52.2361 705.903C52.8293 705.633 53.4933 705.536 54.1441 705.625C54.795 705.715 55.4034 705.986 55.8924 706.405C56.5483 706.967 56.9431 707.755 56.9901 708.594C57.0371 709.434 56.7324 710.257 56.143 710.882Z" fill="#4ED0EF"/>
<path d="M68.2322 721.243C67.7913 721.711 67.2145 722.043 66.5752 722.197C65.9359 722.351 65.2629 722.321 64.6418 722.109C64.0207 721.898 63.4796 721.515 63.0873 721.009C62.695 720.504 62.4692 719.898 62.4386 719.27C62.4081 718.642 62.5742 718.019 62.9158 717.481C63.2573 716.943 63.759 716.514 64.3569 716.249C64.9548 715.984 65.6219 715.894 66.2735 715.991C66.9251 716.088 67.5316 716.368 68.0159 716.795C68.6577 717.36 69.0401 718.144 69.0806 718.977C69.1211 719.809 68.8163 720.623 68.2322 721.243V721.243Z" fill="#4ED0EF"/>
<path d="M68.2322 721.243C67.7913 721.711 67.2145 722.043 66.5752 722.197C65.9359 722.351 65.2629 722.321 64.6418 722.109C64.0207 721.898 63.4796 721.515 63.0873 721.009C62.695 720.504 62.4692 719.898 62.4386 719.27C62.4081 718.642 62.5742 718.019 62.9158 717.481C63.2573 716.943 63.759 716.514 64.3569 716.249C64.9548 715.984 65.6219 715.894 66.2735 715.991C66.9251 716.088 67.5316 716.368 68.0159 716.795C68.6577 717.36 69.0401 718.144 69.0806 718.977C69.1211 719.809 68.8163 720.623 68.2322 721.243V721.243Z" fill="#4ED0EF"/>
<path d="M80.321 731.603C79.8828 732.068 79.3102 732.399 78.6753 732.555C78.0403 732.71 77.3713 732.683 76.7524 732.477C76.1335 732.271 75.5923 731.895 75.1969 731.396C74.8015 730.898 74.5694 730.299 74.53 729.675C74.4905 729.05 74.6454 728.429 74.9752 727.889C75.3049 727.349 75.7948 726.913 76.3833 726.638C76.9717 726.362 77.6324 726.259 78.2824 726.34C78.9323 726.422 79.5425 726.685 80.0361 727.096C80.3678 727.373 80.6386 727.709 80.8327 728.086C81.0269 728.463 81.1405 728.874 81.167 729.293C81.1935 729.712 81.1324 730.132 80.9872 730.529C80.8419 730.926 80.6155 731.291 80.321 731.603V731.603Z" fill="#4ED0EF"/>
<path d="M80.321 731.603C79.8828 732.068 79.3102 732.399 78.6753 732.555C78.0403 732.71 77.3713 732.683 76.7524 732.477C76.1335 732.271 75.5923 731.895 75.1969 731.396C74.8015 730.898 74.5694 730.299 74.53 729.675C74.4905 729.05 74.6454 728.429 74.9752 727.889C75.3049 727.349 75.7948 726.913 76.3833 726.638C76.9717 726.362 77.6324 726.259 78.2824 726.34C78.9323 726.422 79.5425 726.685 80.0361 727.096C80.3678 727.373 80.6386 727.709 80.8327 728.086C81.0269 728.463 81.1405 728.874 81.167 729.293C81.1935 729.712 81.1324 730.132 80.9872 730.529C80.8419 730.926 80.6155 731.291 80.321 731.603V731.603Z" fill="#4ED0EF"/>
<path d="M92.4101 741.963C91.9706 742.43 91.396 742.761 90.7588 742.916C90.1217 743.071 89.4507 743.043 88.8306 742.834C88.2106 742.625 87.6694 742.246 87.2755 741.744C86.8815 741.242 86.6526 740.639 86.6175 740.013C86.5825 739.387 86.7429 738.765 87.0786 738.226C87.4142 737.687 87.91 737.254 88.5032 736.984C89.0964 736.713 89.7604 736.617 90.4112 736.706C91.0621 736.796 91.6705 737.067 92.1595 737.486C92.8153 738.048 93.2102 738.836 93.2572 739.675C93.3042 740.515 92.9995 741.338 92.4101 741.963V741.963Z" fill="#4ED0EF"/>
<path d="M92.4101 741.963C91.9706 742.43 91.396 742.761 90.7588 742.916C90.1217 743.071 89.4507 743.043 88.8306 742.834C88.2106 742.625 87.6694 742.246 87.2755 741.744C86.8815 741.242 86.6526 740.639 86.6175 740.013C86.5825 739.387 86.7429 738.765 87.0786 738.226C87.4142 737.687 87.91 737.254 88.5032 736.984C89.0964 736.713 89.7604 736.617 90.4112 736.706C91.0621 736.796 91.6705 737.067 92.1595 737.486C92.8153 738.048 93.2102 738.836 93.2572 739.675C93.3042 740.515 92.9995 741.338 92.4101 741.963V741.963Z" fill="#4ED0EF"/>
<path d="M104.499 752.324C104.06 752.79 103.485 753.122 102.848 753.277C102.211 753.432 101.54 753.403 100.92 753.194C100.3 752.985 99.7585 752.606 99.3646 752.104C98.9707 751.602 98.7417 751 98.7067 750.374C98.6716 749.747 98.8321 749.125 99.1677 748.586C99.5033 748.047 99.9991 747.615 100.592 747.344C101.186 747.074 101.85 746.977 102.5 747.067C103.151 747.156 103.76 747.427 104.249 747.846C104.904 748.408 105.299 749.196 105.346 750.036C105.393 750.875 105.089 751.698 104.499 752.324V752.324Z" fill="#4ED0EF"/>
<path d="M104.499 752.324C104.06 752.79 103.485 753.122 102.848 753.277C102.211 753.432 101.54 753.403 100.92 753.194C100.3 752.985 99.7585 752.606 99.3646 752.104C98.9707 751.602 98.7417 751 98.7067 750.374C98.6716 749.747 98.8321 749.125 99.1677 748.586C99.5033 748.047 99.9991 747.615 100.592 747.344C101.186 747.074 101.85 746.977 102.5 747.067C103.151 747.156 103.76 747.427 104.249 747.846C104.904 748.408 105.299 749.196 105.346 750.036C105.393 750.875 105.089 751.698 104.499 752.324V752.324Z" fill="#4ED0EF"/>
<path d="M116.588 762.684C116.148 763.151 115.573 763.483 114.936 763.637C114.298 763.792 113.626 763.763 113.006 763.554C112.386 763.344 111.845 762.964 111.451 762.461C111.058 761.958 110.829 761.355 110.795 760.728C110.762 760.102 110.923 759.48 111.261 758.941C111.598 758.402 112.095 757.97 112.689 757.701C113.284 757.432 113.948 757.337 114.599 757.428C115.25 757.52 115.858 757.793 116.346 758.214C116.671 758.492 116.934 758.828 117.122 759.204C117.31 759.579 117.418 759.986 117.44 760.401C117.463 760.816 117.399 761.232 117.253 761.624C117.107 762.015 116.881 762.376 116.588 762.684V762.684Z" fill="#4ED0EF"/>
<path d="M116.588 762.684C116.148 763.151 115.573 763.483 114.936 763.637C114.298 763.792 113.626 763.763 113.006 763.554C112.386 763.344 111.845 762.964 111.451 762.461C111.058 761.958 110.829 761.355 110.795 760.728C110.762 760.102 110.923 759.48 111.261 758.941C111.598 758.402 112.095 757.97 112.689 757.701C113.284 757.432 113.948 757.337 114.599 757.428C115.25 757.52 115.858 757.793 116.346 758.214C116.671 758.492 116.934 758.828 117.122 759.204C117.31 759.579 117.418 759.986 117.44 760.401C117.463 760.816 117.399 761.232 117.253 761.624C117.107 762.015 116.881 762.376 116.588 762.684V762.684Z" fill="#4ED0EF"/>
<path d="M45.1325 722.567C44.693 723.033 44.1184 723.365 43.4812 723.52C42.8441 723.675 42.1731 723.646 41.553 723.437C40.933 723.228 40.3918 722.849 39.9979 722.347C39.604 721.845 39.375 721.243 39.34 720.616C39.3049 719.99 39.4654 719.368 39.801 718.829C40.1366 718.29 40.6324 717.858 41.2256 717.587C41.8188 717.317 42.4828 717.22 43.1336 717.309C43.7845 717.399 44.3929 717.67 44.8819 718.089C45.5378 718.651 45.9326 719.439 45.9796 720.279C46.0266 721.118 45.7219 721.941 45.1325 722.567V722.567Z" fill="#4ED0EF"/>
<path d="M45.1325 722.567C44.693 723.033 44.1184 723.365 43.4812 723.52C42.8441 723.675 42.1731 723.646 41.553 723.437C40.933 723.228 40.3918 722.849 39.9979 722.347C39.604 721.845 39.375 721.243 39.34 720.616C39.3049 719.99 39.4654 719.368 39.801 718.829C40.1366 718.29 40.6324 717.858 41.2256 717.587C41.8188 717.317 42.4828 717.22 43.1336 717.309C43.7845 717.399 44.3929 717.67 44.8819 718.089C45.5378 718.651 45.9326 719.439 45.9796 720.279C46.0266 721.118 45.7219 721.941 45.1325 722.567V722.567Z" fill="#4ED0EF"/>
<path d="M57.2214 732.927C56.7806 733.395 56.2038 733.727 55.5645 733.881C54.9251 734.035 54.2521 734.005 53.631 733.793C53.01 733.582 52.4688 733.199 52.0765 732.694C51.6842 732.188 51.4584 731.583 51.4279 730.954C51.3974 730.326 51.5634 729.704 51.905 729.166C52.2466 728.628 52.7482 728.199 53.3461 727.933C53.944 727.668 54.6112 727.578 55.2628 727.675C55.9143 727.772 56.5208 728.052 57.0052 728.479C57.6469 729.045 58.0294 729.828 58.0699 730.661C58.1103 731.493 57.8055 732.307 57.2214 732.927V732.927Z" fill="#4ED0EF"/>
<path d="M57.2214 732.927C56.7806 733.395 56.2038 733.727 55.5645 733.881C54.9251 734.035 54.2521 734.005 53.631 733.793C53.01 733.582 52.4688 733.199 52.0765 732.694C51.6842 732.188 51.4584 731.583 51.4279 730.954C51.3974 730.326 51.5634 729.704 51.905 729.166C52.2466 728.628 52.7482 728.199 53.3461 727.933C53.944 727.668 54.6112 727.578 55.2628 727.675C55.9143 727.772 56.5208 728.052 57.0052 728.479C57.6469 729.045 58.0294 729.828 58.0699 730.661C58.1103 731.493 57.8055 732.307 57.2214 732.927V732.927Z" fill="#4ED0EF"/>
<path d="M69.3105 743.287C68.8723 743.752 68.2997 744.083 67.6648 744.239C67.0298 744.394 66.3608 744.367 65.7419 744.161C65.123 743.955 64.5818 743.579 64.1864 743.08C63.791 742.582 63.5589 741.983 63.5195 741.359C63.48 740.735 63.6349 740.113 63.9647 739.573C64.2944 739.033 64.7843 738.598 65.3728 738.322C65.9612 738.046 66.6219 737.943 67.2719 738.025C67.9218 738.106 68.532 738.369 69.0256 738.781C69.3573 739.057 69.6281 739.394 69.8222 739.771C70.0164 740.148 70.13 740.558 70.1565 740.977C70.183 741.396 70.1219 741.817 69.9767 742.213C69.8314 742.61 69.605 742.975 69.3105 743.287V743.287Z" fill="#4ED0EF"/>
<path d="M69.3105 743.287C68.8723 743.752 68.2997 744.083 67.6648 744.239C67.0298 744.394 66.3608 744.367 65.7419 744.161C65.123 743.955 64.5818 743.579 64.1864 743.08C63.791 742.582 63.5589 741.983 63.5195 741.359C63.48 740.735 63.6349 740.113 63.9647 739.573C64.2944 739.033 64.7843 738.598 65.3728 738.322C65.9612 738.046 66.6219 737.943 67.2719 738.025C67.9218 738.106 68.532 738.369 69.0256 738.781C69.3573 739.057 69.6281 739.394 69.8222 739.771C70.0164 740.148 70.13 740.558 70.1565 740.977C70.183 741.396 70.1219 741.817 69.9767 742.213C69.8314 742.61 69.605 742.975 69.3105 743.287V743.287Z" fill="#4ED0EF"/>
<path d="M81.3996 753.648C80.9601 754.114 80.3855 754.446 79.7483 754.601C79.1112 754.756 78.4402 754.727 77.8201 754.518C77.2001 754.309 76.6589 753.93 76.265 753.428C75.8711 752.926 75.6421 752.324 75.607 751.697C75.572 751.071 75.7324 750.449 76.0681 749.91C76.4037 749.371 76.8995 748.939 77.4927 748.668C78.0859 748.398 78.7499 748.301 79.4007 748.39C80.0516 748.48 80.66 748.751 81.149 749.17C81.8049 749.732 82.1997 750.52 82.2467 751.359C82.2937 752.199 81.989 753.022 81.3996 753.648V753.648Z" fill="#4ED0EF"/>
<path d="M81.3996 753.648C80.9601 754.114 80.3855 754.446 79.7483 754.601C79.1112 754.756 78.4402 754.727 77.8201 754.518C77.2001 754.309 76.6589 753.93 76.265 753.428C75.8711 752.926 75.6421 752.324 75.607 751.697C75.572 751.071 75.7324 750.449 76.0681 749.91C76.4037 749.371 76.8995 748.939 77.4927 748.668C78.0859 748.398 78.7499 748.301 79.4007 748.39C80.0516 748.48 80.66 748.751 81.149 749.17C81.8049 749.732 82.1997 750.52 82.2467 751.359C82.2937 752.199 81.989 753.022 81.3996 753.648V753.648Z" fill="#4ED0EF"/>
<path d="M93.4887 764.008C93.0492 764.474 92.4746 764.806 91.8374 764.961C91.2003 765.116 90.5293 765.087 89.9092 764.878C89.2892 764.67 88.748 764.29 88.3541 763.788C87.9602 763.286 87.7312 762.684 87.6962 762.058C87.6611 761.432 87.8216 760.81 88.1572 760.27C88.4928 759.731 88.9886 759.299 89.5818 759.029C90.175 758.758 90.839 758.661 91.4898 758.751C92.1407 758.84 92.7491 759.112 93.2381 759.531C93.894 760.093 94.2888 760.88 94.3358 761.72C94.3828 762.559 94.0781 763.383 93.4887 764.008V764.008Z" fill="#4ED0EF"/>
<path d="M93.4887 764.008C93.0492 764.474 92.4746 764.806 91.8374 764.961C91.2003 765.116 90.5293 765.087 89.9092 764.878C89.2892 764.67 88.748 764.29 88.3541 763.788C87.9602 763.286 87.7312 762.684 87.6962 762.058C87.6611 761.432 87.8216 760.81 88.1572 760.27C88.4928 759.731 88.9886 759.299 89.5818 759.029C90.175 758.758 90.839 758.661 91.4898 758.751C92.1407 758.84 92.7491 759.112 93.2381 759.531C93.894 760.093 94.2888 760.88 94.3358 761.72C94.3828 762.559 94.0781 763.383 93.4887 764.008V764.008Z" fill="#4ED0EF"/>
<path d="M105.578 774.368C105.138 774.835 104.563 775.167 103.925 775.322C103.287 775.476 102.616 775.447 101.996 775.238C101.375 775.028 100.834 774.648 100.441 774.145C100.047 773.642 99.8189 773.039 99.785 772.413C99.751 771.786 99.9129 771.164 100.25 770.625C100.587 770.086 101.084 769.655 101.679 769.385C102.273 769.116 102.938 769.021 103.589 769.112C104.24 769.204 104.848 769.477 105.336 769.898C105.66 770.176 105.924 770.513 106.112 770.888C106.299 771.263 106.407 771.67 106.43 772.085C106.452 772.501 106.389 772.916 106.243 773.308C106.096 773.7 105.87 774.06 105.578 774.368V774.368Z" fill="#4ED0EF"/>
<path d="M105.578 774.368C105.138 774.835 104.563 775.167 103.925 775.322C103.287 775.476 102.616 775.447 101.996 775.238C101.375 775.028 100.834 774.648 100.441 774.145C100.047 773.642 99.8189 773.039 99.785 772.413C99.751 771.786 99.9129 771.164 100.25 770.625C100.587 770.086 101.084 769.655 101.679 769.385C102.273 769.116 102.938 769.021 103.589 769.112C104.24 769.204 104.848 769.477 105.336 769.898C105.66 770.176 105.924 770.513 106.112 770.888C106.299 771.263 106.407 771.67 106.43 772.085C106.452 772.501 106.389 772.916 106.243 773.308C106.096 773.7 105.87 774.06 105.578 774.368V774.368Z" fill="#4ED0EF"/>
<path d="M34.1218 734.251C33.6823 734.717 33.1076 735.049 32.4705 735.204C31.8333 735.359 31.1623 735.33 30.5423 735.121C29.9223 734.913 29.3811 734.533 28.9871 734.031C28.5932 733.529 28.3643 732.927 28.3292 732.301C28.2942 731.675 28.4546 731.053 28.7903 730.513C29.1259 729.974 29.6217 729.542 30.2149 729.271C30.8081 729.001 31.4721 728.904 32.1229 728.994C32.7737 729.083 33.3821 729.354 33.8712 729.774C34.527 730.336 34.9219 731.123 34.9688 731.963C35.0158 732.802 34.7111 733.625 34.1218 734.251V734.251Z" fill="#4ED0EF"/>
<path d="M34.1218 734.251C33.6823 734.717 33.1076 735.049 32.4705 735.204C31.8333 735.359 31.1623 735.33 30.5423 735.121C29.9223 734.913 29.3811 734.533 28.9871 734.031C28.5932 733.529 28.3643 732.927 28.3292 732.301C28.2942 731.675 28.4546 731.053 28.7903 730.513C29.1259 729.974 29.6217 729.542 30.2149 729.271C30.8081 729.001 31.4721 728.904 32.1229 728.994C32.7737 729.083 33.3821 729.354 33.8712 729.774C34.527 730.336 34.9219 731.123 34.9688 731.963C35.0158 732.802 34.7111 733.625 34.1218 734.251V734.251Z" fill="#4ED0EF"/>
<path d="M46.2109 744.611C45.7701 745.079 45.1933 745.411 44.554 745.565C43.9146 745.72 43.2416 745.689 42.6205 745.478C41.9995 745.266 41.4584 744.883 41.066 744.378C40.6737 743.872 40.448 743.267 40.4174 742.639C40.3869 742.01 40.5529 741.388 40.8945 740.85C41.2361 740.312 41.7377 739.883 42.3356 739.617C42.9335 739.352 43.6007 739.262 44.2523 739.359C44.9038 739.457 45.5103 739.737 45.9947 740.163C46.6364 740.729 47.0189 741.513 47.0594 742.345C47.0998 743.177 46.795 743.991 46.2109 744.611Z" fill="#4ED0EF"/>
<path d="M46.2109 744.611C45.7701 745.079 45.1933 745.411 44.554 745.565C43.9146 745.72 43.2416 745.689 42.6205 745.478C41.9995 745.266 41.4584 744.883 41.066 744.378C40.6737 743.872 40.448 743.267 40.4174 742.639C40.3869 742.01 40.5529 741.388 40.8945 740.85C41.2361 740.312 41.7377 739.883 42.3356 739.617C42.9335 739.352 43.6007 739.262 44.2523 739.359C44.9038 739.457 45.5103 739.737 45.9947 740.163C46.6364 740.729 47.0189 741.513 47.0594 742.345C47.0998 743.177 46.795 743.991 46.2109 744.611Z" fill="#4ED0EF"/>
<path d="M58.3 754.971C57.8618 755.436 57.2892 755.767 56.6543 755.923C56.0193 756.078 55.3503 756.051 54.7314 755.845C54.1125 755.639 53.5713 755.263 53.1759 754.765C52.7805 754.266 52.5484 753.667 52.509 753.043C52.4695 752.419 52.6244 751.798 52.9542 751.257C53.2839 750.717 53.7738 750.282 54.3623 750.006C54.9507 749.731 55.6114 749.627 56.2614 749.709C56.9113 749.79 57.5215 750.053 58.0151 750.465C58.3468 750.741 58.6176 751.078 58.8117 751.455C59.0059 751.832 59.1195 752.242 59.146 752.661C59.1725 753.081 59.1114 753.501 58.9662 753.897C58.8209 754.294 58.5945 754.659 58.3 754.971V754.971Z" fill="#4ED0EF"/>
<path d="M58.3 754.971C57.8618 755.436 57.2892 755.767 56.6543 755.923C56.0193 756.078 55.3503 756.051 54.7314 755.845C54.1125 755.639 53.5713 755.263 53.1759 754.765C52.7805 754.266 52.5484 753.667 52.509 753.043C52.4695 752.419 52.6244 751.798 52.9542 751.257C53.2839 750.717 53.7738 750.282 54.3623 750.006C54.9507 749.731 55.6114 749.627 56.2614 749.709C56.9113 749.79 57.5215 750.053 58.0151 750.465C58.3468 750.741 58.6176 751.078 58.8117 751.455C59.0059 751.832 59.1195 752.242 59.146 752.661C59.1725 753.081 59.1114 753.501 58.9662 753.897C58.8209 754.294 58.5945 754.659 58.3 754.971V754.971Z" fill="#4ED0EF"/>
<path d="M70.3891 765.332C69.9496 765.798 69.375 766.13 68.7378 766.285C68.1007 766.44 67.4297 766.411 66.8096 766.202C66.1896 765.994 65.6484 765.614 65.2545 765.112C64.8606 764.61 64.6316 764.008 64.5965 763.382C64.5615 762.756 64.7219 762.134 65.0576 761.594C65.3932 761.055 65.889 760.623 66.4822 760.352C67.0754 760.082 67.7394 759.985 68.3902 760.075C69.0411 760.164 69.6495 760.435 70.1385 760.855C70.7943 761.417 71.1892 762.204 71.2362 763.044C71.2832 763.883 70.9785 764.706 70.3891 765.332V765.332Z" fill="#4ED0EF"/>
<path d="M70.3891 765.332C69.9496 765.798 69.375 766.13 68.7378 766.285C68.1007 766.44 67.4297 766.411 66.8096 766.202C66.1896 765.994 65.6484 765.614 65.2545 765.112C64.8606 764.61 64.6316 764.008 64.5965 763.382C64.5615 762.756 64.7219 762.134 65.0576 761.594C65.3932 761.055 65.889 760.623 66.4822 760.352C67.0754 760.082 67.7394 759.985 68.3902 760.075C69.0411 760.164 69.6495 760.435 70.1385 760.855C70.7943 761.417 71.1892 762.204 71.2362 763.044C71.2832 763.883 70.9785 764.706 70.3891 765.332V765.332Z" fill="#4ED0EF"/>
<path d="M82.4782 775.692C82.0387 776.159 81.4641 776.49 80.8269 776.645C80.1898 776.8 79.5188 776.771 78.8987 776.563C78.2787 776.354 77.7375 775.974 77.3436 775.472C76.9497 774.97 76.7207 774.368 76.6857 773.742C76.6506 773.116 76.8111 772.494 77.1467 771.955C77.4823 771.415 77.9781 770.983 78.5713 770.713C79.1645 770.442 79.8285 770.346 80.4793 770.435C81.1302 770.524 81.7386 770.796 82.2276 771.215C82.8835 771.777 83.2783 772.564 83.3253 773.404C83.3723 774.244 83.0676 775.067 82.4782 775.692V775.692Z" fill="#4ED0EF"/>
<path d="M82.4782 775.692C82.0387 776.159 81.4641 776.49 80.8269 776.645C80.1898 776.8 79.5188 776.771 78.8987 776.563C78.2787 776.354 77.7375 775.974 77.3436 775.472C76.9497 774.97 76.7207 774.368 76.6857 773.742C76.6506 773.116 76.8111 772.494 77.1467 771.955C77.4823 771.415 77.9781 770.983 78.5713 770.713C79.1645 770.442 79.8285 770.346 80.4793 770.435C81.1302 770.524 81.7386 770.796 82.2276 771.215C82.8835 771.777 83.2783 772.564 83.3253 773.404C83.3723 774.244 83.0676 775.067 82.4782 775.692V775.692Z" fill="#4ED0EF"/>
<path d="M94.5671 786.053C94.1273 786.519 93.5521 786.851 92.9144 787.006C92.2767 787.161 91.6052 787.131 90.9849 786.922C90.3646 786.713 89.8234 786.332 89.4299 785.829C89.0363 785.326 88.8081 784.724 88.7742 784.097C88.7403 783.47 88.9021 782.848 89.2393 782.309C89.5764 781.77 90.0736 781.339 90.668 781.07C91.2624 780.8 91.9272 780.705 92.5782 780.797C93.2292 780.888 93.8372 781.162 94.3251 781.583C94.6494 781.861 94.913 782.197 95.1008 782.572C95.2885 782.947 95.3967 783.354 95.4192 783.77C95.4417 784.185 95.378 784.6 95.2318 784.992C95.0856 785.384 94.8597 785.744 94.5671 786.053V786.053Z" fill="#4ED0EF"/>
<path d="M94.5671 786.053C94.1273 786.519 93.5521 786.851 92.9144 787.006C92.2767 787.161 91.6052 787.131 90.9849 786.922C90.3646 786.713 89.8234 786.332 89.4299 785.829C89.0363 785.326 88.8081 784.724 88.7742 784.097C88.7403 783.47 88.9021 782.848 89.2393 782.309C89.5764 781.77 90.0736 781.339 90.668 781.07C91.2624 780.8 91.9272 780.705 92.5782 780.797C93.2292 780.888 93.8372 781.162 94.3251 781.583C94.6494 781.861 94.913 782.197 95.1008 782.572C95.2885 782.947 95.3967 783.354 95.4192 783.77C95.4417 784.185 95.378 784.6 95.2318 784.992C95.0856 785.384 94.8597 785.744 94.5671 786.053V786.053Z" fill="#4ED0EF"/>
<path d="M23.119 745.927C22.6809 746.395 22.1069 746.729 21.4698 746.886C20.8327 747.043 20.161 747.016 19.54 746.808C18.9189 746.601 18.3763 746.222 17.981 745.721C17.5856 745.219 17.3552 744.617 17.319 743.99C17.2828 743.364 17.4424 742.741 17.7775 742.201C18.1127 741.661 18.6084 741.228 19.2018 740.957C19.7952 740.686 20.4596 740.588 21.111 740.678C21.7623 740.767 22.3713 741.038 22.8607 741.458C23.515 742.019 23.9096 742.804 23.958 743.641C24.0065 744.479 23.7047 745.301 23.119 745.927V745.927Z" fill="#4ED0EF"/>
<path d="M23.119 745.927C22.6809 746.395 22.1069 746.729 21.4698 746.886C20.8327 747.043 20.161 747.016 19.54 746.808C18.9189 746.601 18.3763 746.222 17.981 745.721C17.5856 745.219 17.3552 744.617 17.319 743.99C17.2828 743.364 17.4424 742.741 17.7775 742.201C18.1127 741.661 18.6084 741.228 19.2018 740.957C19.7952 740.686 20.4596 740.588 21.111 740.678C21.7623 740.767 22.3713 741.038 22.8607 741.458C23.515 742.019 23.9096 742.804 23.958 743.641C24.0065 744.479 23.7047 745.301 23.119 745.927V745.927Z" fill="#4ED0EF"/>
<path d="M35.2081 756.287C34.7687 756.757 34.1926 757.091 33.5533 757.247C32.914 757.403 32.2403 757.375 31.6182 757.165C30.9961 756.955 30.4536 756.573 30.0598 756.068C29.6661 755.562 29.4389 754.957 29.4072 754.328C29.3755 753.7 29.5407 753.076 29.8818 752.537C30.2229 751.999 30.7244 751.569 31.3225 751.303C31.9206 751.037 32.5882 750.946 33.2403 751.043C33.8924 751.14 34.4995 751.42 34.9842 751.848C35.6244 752.412 36.0067 753.193 36.0486 754.024C36.0905 754.854 35.7887 755.667 35.2081 756.287V756.287Z" fill="#4ED0EF"/>
<path d="M35.2081 756.287C34.7687 756.757 34.1926 757.091 33.5533 757.247C32.914 757.403 32.2403 757.375 31.6182 757.165C30.9961 756.955 30.4536 756.573 30.0598 756.068C29.6661 755.562 29.4389 754.957 29.4072 754.328C29.3755 753.7 29.5407 753.076 29.8818 752.537C30.2229 751.999 30.7244 751.569 31.3225 751.303C31.9206 751.037 32.5882 750.946 33.2403 751.043C33.8924 751.14 34.4995 751.42 34.9842 751.848C35.6244 752.412 36.0067 753.193 36.0486 754.024C36.0905 754.854 35.7887 755.667 35.2081 756.287V756.287Z" fill="#4ED0EF"/>
<path d="M47.2972 766.647C46.8604 767.114 46.2885 767.447 45.6536 767.605C45.0186 767.762 44.349 767.737 43.7291 767.532C43.1092 767.327 42.5666 766.952 42.1698 766.454C41.7729 765.956 41.5395 765.357 41.4988 764.733C41.4582 764.108 41.6122 763.486 41.9415 762.945C42.2707 762.404 42.7605 761.968 43.3492 761.692C43.9378 761.415 44.599 761.311 45.2494 761.393C45.8999 761.474 46.5106 761.737 47.0046 762.149C47.3356 762.425 47.6059 762.76 47.8 763.137C47.994 763.513 48.1079 763.922 48.1352 764.34C48.1624 764.758 48.1023 765.178 47.9585 765.574C47.8147 765.97 47.5899 766.335 47.2972 766.647Z" fill="#4ED0EF"/>
<path d="M47.2972 766.647C46.8604 767.114 46.2885 767.447 45.6536 767.605C45.0186 767.762 44.349 767.737 43.7291 767.532C43.1092 767.327 42.5666 766.952 42.1698 766.454C41.7729 765.956 41.5395 765.357 41.4988 764.733C41.4582 764.108 41.6122 763.486 41.9415 762.945C42.2707 762.404 42.7605 761.968 43.3492 761.692C43.9378 761.415 44.599 761.311 45.2494 761.393C45.8999 761.474 46.5106 761.737 47.0046 762.149C47.3356 762.425 47.6059 762.76 47.8 763.137C47.994 763.513 48.1079 763.922 48.1352 764.34C48.1624 764.758 48.1023 765.178 47.9585 765.574C47.8147 765.97 47.5899 766.335 47.2972 766.647Z" fill="#4ED0EF"/>
<path d="M59.3863 777.008C58.9482 777.476 58.3742 777.81 57.7371 777.967C57.1 778.124 56.4284 778.097 55.8073 777.889C55.1862 777.682 54.6437 777.303 54.2483 776.802C53.853 776.3 53.6226 775.698 53.5864 775.071C53.5501 774.445 53.7097 773.822 54.0449 773.282C54.38 772.742 54.8757 772.309 55.4691 772.038C56.0625 771.767 56.727 771.669 57.3783 771.759C58.0296 771.848 58.6386 772.119 59.128 772.539C59.7824 773.1 60.177 773.885 60.2254 774.722C60.2738 775.56 59.9721 776.382 59.3863 777.008V777.008Z" fill="#4ED0EF"/>
<path d="M59.3863 777.008C58.9482 777.476 58.3742 777.81 57.7371 777.967C57.1 778.124 56.4284 778.097 55.8073 777.889C55.1862 777.682 54.6437 777.303 54.2483 776.802C53.853 776.3 53.6226 775.698 53.5864 775.071C53.5501 774.445 53.7097 773.822 54.0449 773.282C54.38 772.742 54.8757 772.309 55.4691 772.038C56.0625 771.767 56.727 771.669 57.3783 771.759C58.0296 771.848 58.6386 772.119 59.128 772.539C59.7824 773.1 60.177 773.885 60.2254 774.722C60.2738 775.56 59.9721 776.382 59.3863 777.008V777.008Z" fill="#4ED0EF"/>
<path d="M71.4752 787.368C71.0371 787.836 70.4631 788.17 69.826 788.327C69.1889 788.484 68.5172 788.457 67.8962 788.25C67.2751 788.042 66.7325 787.664 66.3372 787.162C65.9418 786.66 65.7114 786.058 65.6752 785.432C65.639 784.805 65.7986 784.182 66.1338 783.642C66.4689 783.102 66.9646 782.669 67.558 782.398C68.1514 782.127 68.8158 782.03 69.4672 782.119C70.1185 782.208 70.7275 782.48 71.2169 782.899C71.8712 783.46 72.2658 784.245 72.3142 785.083C72.3627 785.92 72.0609 786.742 71.4752 787.368V787.368Z" fill="#4ED0EF"/>
<path d="M71.4752 787.368C71.0371 787.836 70.4631 788.17 69.826 788.327C69.1889 788.484 68.5172 788.457 67.8962 788.25C67.2751 788.042 66.7325 787.664 66.3372 787.162C65.9418 786.66 65.7114 786.058 65.6752 785.432C65.639 784.805 65.7986 784.182 66.1338 783.642C66.4689 783.102 66.9646 782.669 67.558 782.398C68.1514 782.127 68.8158 782.03 69.4672 782.119C70.1185 782.208 70.7275 782.48 71.2169 782.899C71.8712 783.46 72.2658 784.245 72.3142 785.083C72.3627 785.92 72.0609 786.742 71.4752 787.368V787.368Z" fill="#4ED0EF"/>
<path d="M83.5643 797.729C83.1258 798.197 82.5513 798.531 81.9137 798.688C81.276 798.844 80.6039 798.817 79.9825 798.609C79.3612 798.401 78.8187 798.022 78.4237 797.519C78.0287 797.017 77.7991 796.414 77.764 795.787C77.7289 795.159 77.8899 794.537 78.2265 793.997C78.5632 793.457 79.0603 793.025 79.6549 792.755C80.2495 792.485 80.9147 792.39 81.5663 792.481C82.2178 792.572 82.8263 792.845 83.3146 793.267C83.9681 793.827 84.3616 794.612 84.4084 795.448C84.4552 796.285 84.1516 797.105 83.5643 797.729V797.729Z" fill="#4ED0EF"/>
<path d="M83.5643 797.729C83.1258 798.197 82.5513 798.531 81.9137 798.688C81.276 798.844 80.6039 798.817 79.9825 798.609C79.3612 798.401 78.8187 798.022 78.4237 797.519C78.0287 797.017 77.7991 796.414 77.764 795.787C77.7289 795.159 77.8899 794.537 78.2265 793.997C78.5632 793.457 79.0603 793.025 79.6549 792.755C80.2495 792.485 80.9147 792.39 81.5663 792.481C82.2178 792.572 82.8263 792.845 83.3146 793.267C83.9681 793.827 84.3616 794.612 84.4084 795.448C84.4552 796.285 84.1516 797.105 83.5643 797.729V797.729Z" fill="#4ED0EF"/>
<path d="M12.07 757.652C11.6305 758.118 11.0559 758.45 10.4187 758.605C9.78157 758.76 9.11056 758.731 8.49053 758.522C7.8705 758.314 7.3293 757.934 6.93538 757.432C6.54145 756.93 6.31249 756.328 6.27744 755.702C6.2424 755.076 6.40285 754.454 6.73849 753.915C7.07414 753.375 7.56991 752.943 8.16312 752.673C8.75633 752.402 9.42033 752.305 10.0711 752.395C10.722 752.484 11.3304 752.756 11.8194 753.175C12.4753 753.737 12.8701 754.524 12.9171 755.364C12.9641 756.204 12.6594 757.027 12.07 757.652V757.652Z" fill="#4ED0EF"/>
<path d="M12.07 757.652C11.6305 758.118 11.0559 758.45 10.4187 758.605C9.78157 758.76 9.11056 758.731 8.49053 758.522C7.8705 758.314 7.3293 757.934 6.93538 757.432C6.54145 756.93 6.31249 756.328 6.27744 755.702C6.2424 755.076 6.40285 754.454 6.73849 753.915C7.07414 753.375 7.56991 752.943 8.16312 752.673C8.75633 752.402 9.42033 752.305 10.0711 752.395C10.722 752.484 11.3304 752.756 11.8194 753.175C12.4753 753.737 12.8701 754.524 12.9171 755.364C12.9641 756.204 12.6594 757.027 12.07 757.652V757.652Z" fill="#4ED0EF"/>
<path d="M24.159 768.012C23.7114 768.471 23.1314 768.793 22.4921 768.937C21.8528 769.082 21.1829 769.042 20.5671 768.824C19.9512 768.606 19.417 768.218 19.0319 767.711C18.6468 767.203 18.4281 766.598 18.4033 765.972C18.3785 765.346 18.5488 764.727 18.8927 764.193C19.2366 763.659 19.7386 763.234 20.3354 762.972C20.9323 762.71 21.5971 762.623 22.246 762.721C22.8949 762.819 23.4988 763.098 23.9814 763.524C24.3028 763.807 24.5625 764.148 24.7455 764.527C24.9284 764.906 25.0311 765.316 25.0476 765.733C25.0641 766.15 24.9941 766.566 24.8417 766.957C24.6892 767.348 24.4572 767.707 24.159 768.012V768.012Z" fill="#4ED0EF"/>
<path d="M24.159 768.012C23.7114 768.471 23.1314 768.793 22.4921 768.937C21.8528 769.082 21.1829 769.042 20.5671 768.824C19.9512 768.606 19.417 768.218 19.0319 767.711C18.6468 767.203 18.4281 766.598 18.4033 765.972C18.3785 765.346 18.5488 764.727 18.8927 764.193C19.2366 763.659 19.7386 763.234 20.3354 762.972C20.9323 762.71 21.5971 762.623 22.246 762.721C22.8949 762.819 23.4988 763.098 23.9814 763.524C24.3028 763.807 24.5625 764.148 24.7455 764.527C24.9284 764.906 25.0311 765.316 25.0476 765.733C25.0641 766.15 24.9941 766.566 24.8417 766.957C24.6892 767.348 24.4572 767.707 24.159 768.012V768.012Z" fill="#4ED0EF"/>
<path d="M36.2481 778.373C35.8032 778.829 35.2273 779.149 34.5924 779.295C33.9574 779.441 33.2915 779.405 32.6778 779.192C32.0641 778.979 31.5298 778.598 31.1415 778.098C30.7532 777.597 30.5281 776.998 30.4944 776.376C30.4607 775.754 30.6199 775.137 30.952 774.6C31.2841 774.064 31.7745 773.633 32.3619 773.361C32.9494 773.089 33.6078 772.988 34.2552 773.07C34.9025 773.153 35.51 773.415 36.0018 773.825C36.3372 774.104 36.6103 774.445 36.805 774.827C36.9996 775.209 37.1117 775.625 37.1347 776.049C37.1576 776.473 37.091 776.898 36.9387 777.297C36.7864 777.696 36.5516 778.062 36.2481 778.373V778.373Z" fill="#4ED0EF"/>
<path d="M36.2481 778.373C35.8032 778.829 35.2273 779.149 34.5924 779.295C33.9574 779.441 33.2915 779.405 32.6778 779.192C32.0641 778.979 31.5298 778.598 31.1415 778.098C30.7532 777.597 30.5281 776.998 30.4944 776.376C30.4607 775.754 30.6199 775.137 30.952 774.6C31.2841 774.064 31.7745 773.633 32.3619 773.361C32.9494 773.089 33.6078 772.988 34.2552 773.07C34.9025 773.153 35.51 773.415 36.0018 773.825C36.3372 774.104 36.6103 774.445 36.805 774.827C36.9996 775.209 37.1117 775.625 37.1347 776.049C37.1576 776.473 37.091 776.898 36.9387 777.297C36.7864 777.696 36.5516 778.062 36.2481 778.373V778.373Z" fill="#4ED0EF"/>
<path d="M48.3371 788.733C47.8976 789.199 47.323 789.531 46.6858 789.686C46.0487 789.841 45.3776 789.812 44.7576 789.603C44.1376 789.395 43.5964 789.015 43.2025 788.513C42.8085 788.011 42.5796 787.409 42.5445 786.783C42.5095 786.157 42.6699 785.535 43.0056 784.995C43.3412 784.456 43.837 784.024 44.4302 783.754C45.0234 783.483 45.6874 783.386 46.3382 783.476C46.9891 783.565 47.5975 783.837 48.0865 784.256C48.7423 784.818 49.1372 785.605 49.1842 786.445C49.2312 787.285 48.9265 788.108 48.3371 788.733V788.733Z" fill="#4ED0EF"/>
<path d="M48.3371 788.733C47.8976 789.199 47.323 789.531 46.6858 789.686C46.0487 789.841 45.3776 789.812 44.7576 789.603C44.1376 789.395 43.5964 789.015 43.2025 788.513C42.8085 788.011 42.5796 787.409 42.5445 786.783C42.5095 786.157 42.6699 785.535 43.0056 784.995C43.3412 784.456 43.837 784.024 44.4302 783.754C45.0234 783.483 45.6874 783.386 46.3382 783.476C46.9891 783.565 47.5975 783.837 48.0865 784.256C48.7423 784.818 49.1372 785.605 49.1842 786.445C49.2312 787.285 48.9265 788.108 48.3371 788.733V788.733Z" fill="#4ED0EF"/>
<path d="M60.4262 799.093C59.9867 799.56 59.4121 799.891 58.7749 800.046C58.1378 800.201 57.4668 800.173 56.8467 799.964C56.2267 799.755 55.6855 799.376 55.2916 798.874C54.8977 798.372 54.6687 797.769 54.6336 797.143C54.5986 796.517 54.759 795.895 55.0947 795.356C55.4303 794.817 55.9261 794.384 56.5193 794.114C57.1125 793.843 57.7765 793.747 58.4273 793.836C59.0782 793.925 59.6866 794.197 60.1756 794.616C60.8315 795.178 61.2263 795.966 61.2733 796.805C61.3203 797.645 61.0156 798.468 60.4262 799.093V799.093Z" fill="#4ED0EF"/>
<path d="M60.4262 799.093C59.9867 799.56 59.4121 799.891 58.7749 800.046C58.1378 800.201 57.4668 800.173 56.8467 799.964C56.2267 799.755 55.6855 799.376 55.2916 798.874C54.8977 798.372 54.6687 797.769 54.6336 797.143C54.5986 796.517 54.759 795.895 55.0947 795.356C55.4303 794.817 55.9261 794.384 56.5193 794.114C57.1125 793.843 57.7765 793.747 58.4273 793.836C59.0782 793.925 59.6866 794.197 60.1756 794.616C60.8315 795.178 61.2263 795.966 61.2733 796.805C61.3203 797.645 61.0156 798.468 60.4262 799.093V799.093Z" fill="#4ED0EF"/>
<path d="M72.5153 809.454C72.0755 809.92 71.5003 810.252 70.8626 810.407C70.2249 810.562 69.5534 810.533 68.9331 810.323C68.3128 810.114 67.7716 809.734 67.3781 809.231C66.9846 808.728 66.7564 808.125 66.7225 807.498C66.6885 806.871 66.8504 806.249 67.1875 805.71C67.5246 805.171 68.0219 804.74 68.6163 804.471C69.2106 804.201 69.8754 804.107 70.5265 804.198C71.1775 804.289 71.7854 804.563 72.2733 804.984C72.5977 805.262 72.8612 805.598 73.049 805.973C73.2368 806.349 73.345 806.756 73.3675 807.171C73.39 807.586 73.3263 808.002 73.18 808.393C73.0338 808.785 72.8079 809.145 72.5153 809.454V809.454Z" fill="#4ED0EF"/>
<path d="M72.5153 809.454C72.0755 809.92 71.5003 810.252 70.8626 810.407C70.2249 810.562 69.5534 810.533 68.9331 810.323C68.3128 810.114 67.7716 809.734 67.3781 809.231C66.9846 808.728 66.7564 808.125 66.7225 807.498C66.6885 806.871 66.8504 806.249 67.1875 805.71C67.5246 805.171 68.0219 804.74 68.6163 804.471C69.2106 804.201 69.8754 804.107 70.5265 804.198C71.1775 804.289 71.7854 804.563 72.2733 804.984C72.5977 805.262 72.8612 805.598 73.049 805.973C73.2368 806.349 73.345 806.756 73.3675 807.171C73.39 807.586 73.3263 808.002 73.18 808.393C73.0338 808.785 72.8079 809.145 72.5153 809.454V809.454Z" fill="#4ED0EF"/>
</g>
<g clip-path="url(#clip2)">
<path d="M-0.441444 746.752C-0.880948 747.218 -1.45561 747.55 -2.09275 747.705C-2.7299 747.86 -3.40091 747.831 -4.02094 747.622C-4.64097 747.414 -5.18216 747.034 -5.57609 746.532C-5.97001 746.03 -6.19898 745.428 -6.23402 744.802C-6.26907 744.176 -6.10862 743.554 -5.77298 743.014C-5.43733 742.475 -4.94156 742.043 -4.34835 741.773C-3.75514 741.502 -3.09115 741.405 -2.44033 741.495C-1.78951 741.584 -1.1811 741.856 -0.692034 742.275C-0.0362167 742.837 0.35862 743.624 0.405614 744.464C0.452609 745.303 0.147913 746.127 -0.441444 746.752V746.752Z" fill="#4ED0EF"/>
<path d="M-0.441444 746.752C-0.880948 747.218 -1.45561 747.55 -2.09275 747.705C-2.7299 747.86 -3.40091 747.831 -4.02094 747.622C-4.64097 747.414 -5.18216 747.034 -5.57609 746.532C-5.97001 746.03 -6.19898 745.428 -6.23402 744.802C-6.26907 744.176 -6.10862 743.554 -5.77298 743.014C-5.43733 742.475 -4.94156 742.043 -4.34835 741.773C-3.75514 741.502 -3.09115 741.405 -2.44033 741.495C-1.78951 741.584 -1.1811 741.856 -0.692034 742.275C-0.0362167 742.837 0.35862 743.624 0.405614 744.464C0.452609 745.303 0.147913 746.127 -0.441444 746.752V746.752Z" fill="#4ED0EF"/>
<path d="M11.6477 757.112C11.2078 757.579 10.6326 757.911 9.99495 758.066C9.35725 758.22 8.68574 758.191 8.06544 757.982C7.44514 757.772 6.90396 757.392 6.51043 756.889C6.1169 756.386 5.88871 755.783 5.85478 755.157C5.82085 754.53 5.9827 753.908 6.31983 753.369C6.65695 752.83 7.1542 752.399 7.74858 752.129C8.34297 751.86 9.00776 751.765 9.65878 751.856C10.3098 751.948 10.9178 752.221 11.4057 752.642C11.73 752.92 11.9936 753.257 12.1813 753.632C12.3691 754.007 12.4773 754.414 12.4998 754.829C12.5223 755.245 12.4586 755.66 12.3124 756.052C12.1661 756.444 11.9402 756.804 11.6477 757.112V757.112Z" fill="#4ED0EF"/>
<path d="M11.6477 757.112C11.2078 757.579 10.6326 757.911 9.99495 758.066C9.35725 758.22 8.68574 758.191 8.06544 757.982C7.44514 757.772 6.90396 757.392 6.51043 756.889C6.1169 756.386 5.88871 755.783 5.85478 755.157C5.82085 754.53 5.9827 753.908 6.31983 753.369C6.65695 752.83 7.1542 752.399 7.74858 752.129C8.34297 751.86 9.00776 751.765 9.65878 751.856C10.3098 751.948 10.9178 752.221 11.4057 752.642C11.73 752.92 11.9936 753.257 12.1813 753.632C12.3691 754.007 12.4773 754.414 12.4998 754.829C12.5223 755.245 12.4586 755.66 12.3124 756.052C12.1661 756.444 11.9402 756.804 11.6477 757.112V757.112Z" fill="#4ED0EF"/>
<path d="M0.637163 768.797C0.197328 769.263 -0.37786 769.595 -1.01555 769.75C-1.65324 769.905 -2.32476 769.875 -2.94506 769.666C-3.56536 769.457 -4.10654 769.076 -4.50007 768.573C-4.8936 768.071 -5.12178 767.468 -5.15571 766.841C-5.18964 766.214 -5.02779 765.592 -4.69067 765.053C-4.35354 764.514 -3.8563 764.083 -3.26191 763.814C-2.66753 763.544 -2.00273 763.449 -1.35172 763.541C-0.700702 763.632 -0.0927462 763.906 0.395155 764.327C0.719481 764.605 0.983082 764.941 1.17084 765.316C1.3586 765.691 1.46682 766.098 1.48931 766.514C1.51179 766.929 1.44809 767.344 1.30186 767.736C1.15563 768.128 0.929748 768.488 0.637163 768.797V768.797Z" fill="#4ED0EF"/>
<path d="M0.637163 768.797C0.197328 769.263 -0.37786 769.595 -1.01555 769.75C-1.65324 769.905 -2.32476 769.875 -2.94506 769.666C-3.56536 769.457 -4.10654 769.076 -4.50007 768.573C-4.8936 768.071 -5.12178 767.468 -5.15571 766.841C-5.18964 766.214 -5.02779 765.592 -4.69067 765.053C-4.35354 764.514 -3.8563 764.083 -3.26191 763.814C-2.66753 763.544 -2.00273 763.449 -1.35172 763.541C-0.700702 763.632 -0.0927462 763.906 0.395155 764.327C0.719481 764.605 0.983082 764.941 1.17084 765.316C1.3586 765.691 1.46682 766.098 1.48931 766.514C1.51179 766.929 1.44809 767.344 1.30186 767.736C1.15563 768.128 0.929748 768.488 0.637163 768.797V768.797Z" fill="#4ED0EF"/>
</g>
<g clip-path="url(#clip3)">
<path d="M12.1626 757.554C11.7231 758.02 11.1484 758.352 10.5113 758.507C9.87411 758.662 9.2031 758.633 8.58307 758.424C7.96304 758.216 7.42184 757.836 7.02792 757.334C6.63399 756.832 6.40503 756.23 6.36998 755.604C6.33494 754.978 6.49538 754.355 6.83103 753.816C7.16667 753.277 7.66245 752.845 8.25565 752.574C8.84886 752.304 9.51286 752.207 10.1637 752.297C10.8145 752.386 11.4229 752.657 11.912 753.077C12.5678 753.639 12.9626 754.426 13.0096 755.266C13.0566 756.105 12.7519 756.928 12.1626 757.554Z" fill="#4ED0EF"/>
<path d="M12.1626 757.554C11.7231 758.02 11.1484 758.352 10.5113 758.507C9.87411 758.662 9.2031 758.633 8.58307 758.424C7.96304 758.216 7.42184 757.836 7.02792 757.334C6.63399 756.832 6.40503 756.23 6.36998 755.604C6.33494 754.978 6.49538 754.355 6.83103 753.816C7.16667 753.277 7.66245 752.845 8.25565 752.574C8.84886 752.304 9.51286 752.207 10.1637 752.297C10.8145 752.386 11.4229 752.657 11.912 753.077C12.5678 753.639 12.9626 754.426 13.0096 755.266C13.0566 756.105 12.7519 756.928 12.1626 757.554Z" fill="#4ED0EF"/>
<path d="M24.2517 767.914C23.8108 768.382 23.2341 768.714 22.5947 768.868C21.9554 769.023 21.2824 768.992 20.6613 768.781C20.0402 768.569 19.4991 768.186 19.1068 767.681C18.7145 767.175 18.4887 766.57 18.4582 765.942C18.4276 765.313 18.5937 764.691 18.9353 764.153C19.2769 763.615 19.7785 763.186 20.3764 762.92C20.9743 762.655 21.6415 762.565 22.293 762.662C22.9446 762.76 23.5511 763.039 24.0355 763.466C24.6772 764.032 25.0597 764.816 25.1001 765.648C25.1406 766.48 24.8358 767.294 24.2517 767.914V767.914Z" fill="#4ED0EF"/>
<path d="M24.2517 767.914C23.8108 768.382 23.2341 768.714 22.5947 768.868C21.9554 769.023 21.2824 768.992 20.6613 768.781C20.0402 768.569 19.4991 768.186 19.1068 767.681C18.7145 767.175 18.4887 766.57 18.4582 765.942C18.4276 765.313 18.5937 764.691 18.9353 764.153C19.2769 763.615 19.7785 763.186 20.3764 762.92C20.9743 762.655 21.6415 762.565 22.293 762.662C22.9446 762.76 23.5511 763.039 24.0355 763.466C24.6772 764.032 25.0597 764.816 25.1001 765.648C25.1406 766.48 24.8358 767.294 24.2517 767.914V767.914Z" fill="#4ED0EF"/>
<path d="M36.3406 778.274C35.9023 778.739 35.3298 779.07 34.6948 779.226C34.0598 779.381 33.3909 779.354 32.772 779.148C32.1531 778.942 31.6119 778.566 31.2164 778.068C30.821 777.569 30.589 776.97 30.5495 776.346C30.5101 775.722 30.6649 775.101 30.9947 774.56C31.3244 774.02 31.8143 773.585 32.4028 773.309C32.9912 773.034 33.652 772.93 34.3019 773.012C34.9519 773.093 35.562 773.356 36.0556 773.768C36.3873 774.044 36.6581 774.381 36.8523 774.758C37.0464 775.135 37.16 775.545 37.1865 775.964C37.2131 776.384 37.1519 776.804 37.0067 777.2C36.8615 777.597 36.635 777.962 36.3406 778.274V778.274Z" fill="#4ED0EF"/>
<path d="M36.3406 778.274C35.9023 778.739 35.3298 779.07 34.6948 779.226C34.0598 779.381 33.3909 779.354 32.772 779.148C32.1531 778.942 31.6119 778.566 31.2164 778.068C30.821 777.569 30.589 776.97 30.5495 776.346C30.5101 775.722 30.6649 775.101 30.9947 774.56C31.3244 774.02 31.8143 773.585 32.4028 773.309C32.9912 773.034 33.652 772.93 34.3019 773.012C34.9519 773.093 35.562 773.356 36.0556 773.768C36.3873 774.044 36.6581 774.381 36.8523 774.758C37.0464 775.135 37.16 775.545 37.1865 775.964C37.2131 776.384 37.1519 776.804 37.0067 777.2C36.8615 777.597 36.635 777.962 36.3406 778.274V778.274Z" fill="#4ED0EF"/>
<path d="M48.4297 788.635C47.9901 789.101 47.4155 789.433 46.7783 789.588C46.1412 789.743 45.4702 789.714 44.8502 789.505C44.2301 789.296 43.6889 788.917 43.295 788.415C42.9011 787.913 42.6721 787.311 42.6371 786.685C42.602 786.058 42.7625 785.436 43.0981 784.897C43.4338 784.358 43.9295 783.926 44.5227 783.655C45.116 783.385 45.7799 783.288 46.4308 783.378C47.0816 783.467 47.69 783.738 48.1791 784.157C48.8349 784.72 49.2297 785.507 49.2767 786.347C49.3237 787.186 49.019 788.009 48.4297 788.635V788.635Z" fill="#4ED0EF"/>
<path d="M48.4297 788.635C47.9901 789.101 47.4155 789.433 46.7783 789.588C46.1412 789.743 45.4702 789.714 44.8502 789.505C44.2301 789.296 43.6889 788.917 43.295 788.415C42.9011 787.913 42.6721 787.311 42.6371 786.685C42.602 786.058 42.7625 785.436 43.0981 784.897C43.4338 784.358 43.9295 783.926 44.5227 783.655C45.116 783.385 45.7799 783.288 46.4308 783.378C47.0816 783.467 47.69 783.738 48.1791 784.157C48.8349 784.72 49.2297 785.507 49.2767 786.347C49.3237 787.186 49.019 788.009 48.4297 788.635V788.635Z" fill="#4ED0EF"/>
<path d="M60.5188 798.995C60.0793 799.462 59.5046 799.793 58.8675 799.948C58.2303 800.103 57.5593 800.074 56.9393 799.866C56.3192 799.657 55.778 799.277 55.3841 798.775C54.9902 798.273 54.7612 797.671 54.7262 797.045C54.6911 796.419 54.8516 795.797 55.1872 795.258C55.5229 794.718 56.0186 794.286 56.6119 794.016C57.2051 793.745 57.8691 793.649 58.5199 793.738C59.1707 793.827 59.7791 794.099 60.2682 794.518C60.924 795.08 61.3188 795.867 61.3658 796.707C61.4128 797.547 61.1081 798.37 60.5188 798.995V798.995Z" fill="#4ED0EF"/>
<path d="M60.5188 798.995C60.0793 799.462 59.5046 799.793 58.8675 799.948C58.2303 800.103 57.5593 800.074 56.9393 799.866C56.3192 799.657 55.778 799.277 55.3841 798.775C54.9902 798.273 54.7612 797.671 54.7262 797.045C54.6911 796.419 54.8516 795.797 55.1872 795.258C55.5229 794.718 56.0186 794.286 56.6119 794.016C57.2051 793.745 57.8691 793.649 58.5199 793.738C59.1707 793.827 59.7791 794.099 60.2682 794.518C60.924 795.08 61.3188 795.867 61.3658 796.707C61.4128 797.547 61.1081 798.37 60.5188 798.995V798.995Z" fill="#4ED0EF"/>
<path d="M72.6079 809.355C72.168 809.822 71.5928 810.154 70.9551 810.309C70.3175 810.464 69.6459 810.434 69.0256 810.225C68.4053 810.016 67.8642 809.635 67.4706 809.132C67.0771 808.629 66.8489 808.026 66.815 807.4C66.7811 806.773 66.9429 806.151 67.28 805.612C67.6172 805.073 68.1144 804.642 68.7088 804.373C69.3032 804.103 69.968 804.008 70.619 804.1C71.27 804.191 71.878 804.465 72.3659 804.886C72.6902 805.164 72.9538 805.5 73.1415 805.875C73.3293 806.25 73.4375 806.657 73.46 807.073C73.4825 807.488 73.4188 807.903 73.2726 808.295C73.1263 808.687 72.9004 809.047 72.6079 809.355V809.355Z" fill="#4ED0EF"/>
<path d="M72.6079 809.355C72.168 809.822 71.5928 810.154 70.9551 810.309C70.3175 810.464 69.6459 810.434 69.0256 810.225C68.4053 810.016 67.8642 809.635 67.4706 809.132C67.0771 808.629 66.8489 808.026 66.815 807.4C66.7811 806.773 66.9429 806.151 67.28 805.612C67.6172 805.073 68.1144 804.642 68.7088 804.373C69.3032 804.103 69.968 804.008 70.619 804.1C71.27 804.191 71.878 804.465 72.3659 804.886C72.6902 805.164 72.9538 805.5 73.1415 805.875C73.3293 806.25 73.4375 806.657 73.46 807.073C73.4825 807.488 73.4188 807.903 73.2726 808.295C73.1263 808.687 72.9004 809.047 72.6079 809.355V809.355Z" fill="#4ED0EF"/>
<path d="M1.15206 769.238C0.71256 769.704 0.137901 770.036 -0.499244 770.191C-1.13639 770.346 -1.8074 770.317 -2.42743 770.108C-3.04746 769.9 -3.58866 769.52 -3.98258 769.018C-4.37651 768.516 -4.60547 767.914 -4.64052 767.288C-4.67556 766.662 -4.51512 766.04 -4.17947 765.501C-3.84382 764.961 -3.34805 764.529 -2.75484 764.259C-2.16164 763.988 -1.49764 763.891 -0.846822 763.981C-0.196003 764.07 0.412408 764.342 0.901474 764.761C1.55729 765.323 1.95213 766.11 1.99912 766.95C2.04612 767.79 1.74142 768.613 1.15206 769.238V769.238Z" fill="#4ED0EF"/>
<path d="M1.15206 769.238C0.71256 769.704 0.137901 770.036 -0.499244 770.191C-1.13639 770.346 -1.8074 770.317 -2.42743 770.108C-3.04746 769.9 -3.58866 769.52 -3.98258 769.018C-4.37651 768.516 -4.60547 767.914 -4.64052 767.288C-4.67556 766.662 -4.51512 766.04 -4.17947 765.501C-3.84382 764.961 -3.34805 764.529 -2.75484 764.259C-2.16164 763.988 -1.49764 763.891 -0.846822 763.981C-0.196003 764.07 0.412408 764.342 0.901474 764.761C1.55729 765.323 1.95213 766.11 1.99912 766.95C2.04612 767.79 1.74142 768.613 1.15206 769.238V769.238Z" fill="#4ED0EF"/>
<path d="M13.241 779.598C12.8001 780.066 12.2233 780.398 11.584 780.553C10.9447 780.707 10.2717 780.676 9.65058 780.465C9.02949 780.253 8.48838 779.871 8.09607 779.365C7.70376 778.859 7.47798 778.254 7.44744 777.626C7.41689 776.998 7.58297 776.375 7.92454 775.837C8.26612 775.299 8.76776 774.87 9.36566 774.605C9.96357 774.339 10.6307 774.249 11.2823 774.347C11.9338 774.444 12.5404 774.724 13.0247 775.151C13.6664 775.716 14.0489 776.5 14.0894 777.332C14.1299 778.165 13.8251 778.979 13.241 779.598V779.598Z" fill="#4ED0EF"/>
<path d="M13.241 779.598C12.8001 780.066 12.2233 780.398 11.584 780.553C10.9447 780.707 10.2717 780.676 9.65058 780.465C9.02949 780.253 8.48838 779.871 8.09607 779.365C7.70376 778.859 7.47798 778.254 7.44744 777.626C7.41689 776.998 7.58297 776.375 7.92454 775.837C8.26612 775.299 8.76776 774.87 9.36566 774.605C9.96357 774.339 10.6307 774.249 11.2823 774.347C11.9338 774.444 12.5404 774.724 13.0247 775.151C13.6664 775.716 14.0489 776.5 14.0894 777.332C14.1299 778.165 13.8251 778.979 13.241 779.598V779.598Z" fill="#4ED0EF"/>
<path d="M25.3301 789.959C24.8918 790.424 24.3193 790.755 23.6843 790.91C23.0493 791.066 22.3804 791.039 21.7615 790.832C21.1426 790.626 20.6014 790.25 20.2059 789.752C19.8105 789.253 19.5785 788.654 19.539 788.03C19.4996 787.406 19.6544 786.785 19.9842 786.245C20.3139 785.704 20.8038 785.269 21.3923 784.993C21.9807 784.718 22.6415 784.614 23.2914 784.696C23.9414 784.778 24.5515 785.041 25.0451 785.452C25.3768 785.728 25.6476 786.065 25.8418 786.442C26.0359 786.819 26.1495 787.229 26.176 787.648C26.2026 788.068 26.1414 788.488 25.9962 788.885C25.851 789.281 25.6245 789.646 25.3301 789.959V789.959Z" fill="#4ED0EF"/>
<path d="M25.3301 789.959C24.8918 790.424 24.3193 790.755 23.6843 790.91C23.0493 791.066 22.3804 791.039 21.7615 790.832C21.1426 790.626 20.6014 790.25 20.2059 789.752C19.8105 789.253 19.5785 788.654 19.539 788.03C19.4996 787.406 19.6544 786.785 19.9842 786.245C20.3139 785.704 20.8038 785.269 21.3923 784.993C21.9807 784.718 22.6415 784.614 23.2914 784.696C23.9414 784.778 24.5515 785.041 25.0451 785.452C25.3768 785.728 25.6476 786.065 25.8418 786.442C26.0359 786.819 26.1495 787.229 26.176 787.648C26.2026 788.068 26.1414 788.488 25.9962 788.885C25.851 789.281 25.6245 789.646 25.3301 789.959V789.959Z" fill="#4ED0EF"/>
<path d="M37.4192 800.319C36.9797 800.785 36.405 801.117 35.7678 801.272C35.1307 801.427 34.4597 801.398 33.8397 801.189C33.2196 800.981 32.6784 800.601 32.2845 800.099C31.8906 799.597 31.6616 798.995 31.6266 798.369C31.5915 797.743 31.752 797.121 32.0876 796.581C32.4233 796.042 32.919 795.61 33.5122 795.34C34.1055 795.069 34.7694 794.972 35.4203 795.062C36.0711 795.151 36.6795 795.423 37.1686 795.842C37.8244 796.404 38.2192 797.191 38.2662 798.031C38.3132 798.87 38.0085 799.694 37.4192 800.319V800.319Z" fill="#4ED0EF"/>
<path d="M37.4192 800.319C36.9797 800.785 36.405 801.117 35.7678 801.272C35.1307 801.427 34.4597 801.398 33.8397 801.189C33.2196 800.981 32.6784 800.601 32.2845 800.099C31.8906 799.597 31.6616 798.995 31.6266 798.369C31.5915 797.743 31.752 797.121 32.0876 796.581C32.4233 796.042 32.919 795.61 33.5122 795.34C34.1055 795.069 34.7694 794.972 35.4203 795.062C36.0711 795.151 36.6795 795.423 37.1686 795.842C37.8244 796.404 38.2192 797.191 38.2662 798.031C38.3132 798.87 38.0085 799.694 37.4192 800.319V800.319Z" fill="#4ED0EF"/>
<path d="M49.5083 810.679C49.0688 811.146 48.4941 811.477 47.857 811.632C47.2198 811.787 46.5488 811.759 45.9288 811.55C45.3087 811.341 44.7675 810.962 44.3736 810.46C43.9797 809.958 43.7507 809.355 43.7157 808.729C43.6806 808.103 43.8411 807.481 44.1767 806.942C44.5124 806.403 45.0082 805.97 45.6014 805.7C46.1946 805.429 46.8586 805.333 47.5094 805.422C48.1602 805.511 48.7686 805.783 49.2577 806.202C49.9135 806.764 50.3083 807.552 50.3553 808.391C50.4023 809.231 50.0976 810.054 49.5083 810.679V810.679Z" fill="#4ED0EF"/>
<path d="M49.5083 810.679C49.0688 811.146 48.4941 811.477 47.857 811.632C47.2198 811.787 46.5488 811.759 45.9288 811.55C45.3087 811.341 44.7675 810.962 44.3736 810.46C43.9797 809.958 43.7507 809.355 43.7157 808.729C43.6806 808.103 43.8411 807.481 44.1767 806.942C44.5124 806.403 45.0082 805.97 45.6014 805.7C46.1946 805.429 46.8586 805.333 47.5094 805.422C48.1602 805.511 48.7686 805.783 49.2577 806.202C49.9135 806.764 50.3083 807.552 50.3553 808.391C50.4023 809.231 50.0976 810.054 49.5083 810.679V810.679Z" fill="#4ED0EF"/>
<path d="M61.5974 821.04C61.1575 821.506 60.5823 821.838 59.9446 821.993C59.307 822.148 58.6354 822.119 58.0151 821.909C57.3948 821.7 56.8537 821.32 56.4601 820.817C56.0666 820.314 55.8384 819.711 55.8045 819.084C55.7706 818.457 55.9324 817.835 56.2695 817.296C56.6067 816.757 57.1039 816.326 57.6983 816.057C58.2927 815.787 58.9575 815.693 59.6085 815.784C60.2595 815.875 60.8675 816.149 61.3554 816.57C61.6797 816.848 61.9433 817.184 62.131 817.559C62.3188 817.935 62.427 818.342 62.4495 818.757C62.472 819.172 62.4083 819.588 62.2621 819.979C62.1158 820.371 61.8899 820.731 61.5974 821.04V821.04Z" fill="#4ED0EF"/>
<path d="M61.5974 821.04C61.1575 821.506 60.5823 821.838 59.9446 821.993C59.307 822.148 58.6354 822.119 58.0151 821.909C57.3948 821.7 56.8537 821.32 56.4601 820.817C56.0666 820.314 55.8384 819.711 55.8045 819.084C55.7706 818.457 55.9324 817.835 56.2695 817.296C56.6067 816.757 57.1039 816.326 57.6983 816.057C58.2927 815.787 58.9575 815.693 59.6085 815.784C60.2595 815.875 60.8675 816.149 61.3554 816.57C61.6797 816.848 61.9433 817.184 62.131 817.559C62.3188 817.935 62.427 818.342 62.4495 818.757C62.472 819.172 62.4083 819.588 62.2621 819.979C62.1158 820.371 61.8899 820.731 61.5974 821.04V821.04Z" fill="#4ED0EF"/>
<path d="M2.23046 791.283C1.78961 791.75 1.21284 792.082 0.573503 792.237C-0.0658292 792.391 -0.738835 792.361 -1.35992 792.149C-1.98101 791.938 -2.52212 791.555 -2.91443 791.049C-3.30673 790.544 -3.53252 789.938 -3.56306 789.31C-3.5936 788.682 -3.42753 788.059 -3.08595 787.521C-2.74438 786.983 -2.24274 786.554 -1.64484 786.289C-1.04693 786.023 -0.379773 785.934 0.271786 786.031C0.923346 786.128 1.52987 786.408 2.01422 786.835C2.65595 787.4 3.03842 788.184 3.07889 789.016C3.11936 789.849 2.81457 790.663 2.23046 791.283Z" fill="#4ED0EF"/>
<path d="M2.23046 791.283C1.78961 791.75 1.21284 792.082 0.573503 792.237C-0.0658292 792.391 -0.738835 792.361 -1.35992 792.149C-1.98101 791.938 -2.52212 791.555 -2.91443 791.049C-3.30673 790.544 -3.53252 789.938 -3.56306 789.31C-3.5936 788.682 -3.42753 788.059 -3.08595 787.521C-2.74438 786.983 -2.24274 786.554 -1.64484 786.289C-1.04693 786.023 -0.379773 785.934 0.271786 786.031C0.923346 786.128 1.52987 786.408 2.01422 786.835C2.65595 787.4 3.03842 788.184 3.07889 789.016C3.11936 789.849 2.81457 790.663 2.23046 791.283Z" fill="#4ED0EF"/>
<path d="M14.3196 801.643C13.8813 802.108 13.3088 802.439 12.6738 802.594C12.0388 802.75 11.3699 802.723 10.751 802.517C10.1321 802.311 9.59087 801.935 9.19543 801.436C8.79999 800.937 8.56796 800.338 8.52851 799.714C8.48906 799.09 8.64394 798.469 8.97369 797.929C9.30344 797.388 9.79334 796.953 10.3818 796.678C10.9702 796.402 11.631 796.299 12.2809 796.38C12.9309 796.462 13.541 796.725 14.0346 797.136C14.3663 797.413 14.6371 797.749 14.8313 798.126C15.0254 798.503 15.139 798.913 15.1655 799.333C15.1921 799.752 15.1309 800.172 14.9857 800.569C14.8405 800.965 14.614 801.33 14.3196 801.643V801.643Z" fill="#4ED0EF"/>
<path d="M14.3196 801.643C13.8813 802.108 13.3088 802.439 12.6738 802.594C12.0388 802.75 11.3699 802.723 10.751 802.517C10.1321 802.311 9.59087 801.935 9.19543 801.436C8.79999 800.937 8.56796 800.338 8.52851 799.714C8.48906 799.09 8.64394 798.469 8.97369 797.929C9.30344 797.388 9.79334 796.953 10.3818 796.678C10.9702 796.402 11.631 796.299 12.2809 796.38C12.9309 796.462 13.541 796.725 14.0346 797.136C14.3663 797.413 14.6371 797.749 14.8313 798.126C15.0254 798.503 15.139 798.913 15.1655 799.333C15.1921 799.752 15.1309 800.172 14.9857 800.569C14.8405 800.965 14.614 801.33 14.3196 801.643V801.643Z" fill="#4ED0EF"/>
<path d="M26.4087 812.003C25.9692 812.47 25.3945 812.801 24.7573 812.956C24.1202 813.111 23.4492 813.082 22.8292 812.874C22.2091 812.665 21.6679 812.286 21.274 811.783C20.8801 811.281 20.6511 810.679 20.6161 810.053C20.581 809.427 20.7415 808.805 21.0771 808.266C21.4128 807.726 21.9085 807.294 22.5018 807.024C23.095 806.753 23.759 806.657 24.4098 806.746C25.0606 806.835 25.669 807.107 26.1581 807.526C26.8139 808.088 27.2087 808.875 27.2557 809.715C27.3027 810.555 26.998 811.378 26.4087 812.003V812.003Z" fill="#4ED0EF"/>
<path d="M26.4087 812.003C25.9692 812.47 25.3945 812.801 24.7573 812.956C24.1202 813.111 23.4492 813.082 22.8292 812.874C22.2091 812.665 21.6679 812.286 21.274 811.783C20.8801 811.281 20.6511 810.679 20.6161 810.053C20.581 809.427 20.7415 808.805 21.0771 808.266C21.4128 807.726 21.9085 807.294 22.5018 807.024C23.095 806.753 23.759 806.657 24.4098 806.746C25.0606 806.835 25.669 807.107 26.1581 807.526C26.8139 808.088 27.2087 808.875 27.2557 809.715C27.3027 810.555 26.998 811.378 26.4087 812.003V812.003Z" fill="#4ED0EF"/>
<path d="M38.4978 822.364C38.0583 822.83 37.4836 823.162 36.8465 823.317C36.2093 823.471 35.5383 823.443 34.9183 823.234C34.2982 823.025 33.757 822.646 33.3631 822.144C32.9692 821.642 32.7402 821.04 32.7052 820.413C32.6701 819.787 32.8306 819.165 33.1662 818.626C33.5019 818.087 33.9977 817.655 34.5909 817.384C35.1841 817.114 35.8481 817.017 36.4989 817.106C37.1497 817.196 37.7581 817.467 38.2472 817.886C38.903 818.448 39.2978 819.236 39.3448 820.075C39.3918 820.915 39.0871 821.738 38.4978 822.364V822.364Z" fill="#4ED0EF"/>
<path d="M38.4978 822.364C38.0583 822.83 37.4836 823.162 36.8465 823.317C36.2093 823.471 35.5383 823.443 34.9183 823.234C34.2982 823.025 33.757 822.646 33.3631 822.144C32.9692 821.642 32.7402 821.04 32.7052 820.413C32.6701 819.787 32.8306 819.165 33.1662 818.626C33.5019 818.087 33.9977 817.655 34.5909 817.384C35.1841 817.114 35.8481 817.017 36.4989 817.106C37.1497 817.196 37.7581 817.467 38.2472 817.886C38.903 818.448 39.2978 819.236 39.3448 820.075C39.3918 820.915 39.0871 821.738 38.4978 822.364V822.364Z" fill="#4ED0EF"/>
<path d="M50.5866 832.724C50.1468 833.191 49.5716 833.522 48.9339 833.677C48.2962 833.832 47.6247 833.803 47.0044 833.593C46.3841 833.384 45.8429 833.004 45.4494 832.501C45.0559 831.998 44.8277 831.395 44.7937 830.768C44.7598 830.142 44.9217 829.519 45.2588 828.98C45.5959 828.442 46.0932 828.01 46.6875 827.741C47.2819 827.472 47.9467 827.377 48.5977 827.468C49.2488 827.559 49.8567 827.833 50.3446 828.254C50.6689 828.532 50.9325 828.868 51.1203 829.243C51.3081 829.619 51.4163 830.026 51.4388 830.441C51.4612 830.856 51.3975 831.272 51.2513 831.663C51.1051 832.055 50.8792 832.416 50.5866 832.724V832.724Z" fill="#4ED0EF"/>
<path d="M50.5866 832.724C50.1468 833.191 49.5716 833.522 48.9339 833.677C48.2962 833.832 47.6247 833.803 47.0044 833.593C46.3841 833.384 45.8429 833.004 45.4494 832.501C45.0559 831.998 44.8277 831.395 44.7937 830.768C44.7598 830.142 44.9217 829.519 45.2588 828.98C45.5959 828.442 46.0932 828.01 46.6875 827.741C47.2819 827.472 47.9467 827.377 48.5977 827.468C49.2488 827.559 49.8567 827.833 50.3446 828.254C50.6689 828.532 50.9325 828.868 51.1203 829.243C51.3081 829.619 51.4163 830.026 51.4388 830.441C51.4612 830.856 51.3975 831.272 51.2513 831.663C51.1051 832.055 50.8792 832.416 50.5866 832.724V832.724Z" fill="#4ED0EF"/>
<path d="M3.31678 813.319C2.87992 813.786 2.30802 814.119 1.67308 814.276C1.03815 814.434 0.368564 814.408 -0.251361 814.204C-0.871287 813.999 -1.41384 813.624 -1.81071 813.126C-2.20757 812.627 -2.44102 812.028 -2.48164 811.404C-2.52226 810.78 -2.36825 810.158 -2.03899 809.617C-1.70973 809.075 -1.21995 808.639 -0.631313 808.363C-0.0426756 808.087 0.618503 807.983 1.26897 808.064C1.91944 808.146 2.53012 808.409 3.02413 808.82C3.3551 809.096 3.62543 809.432 3.81949 809.808C4.01355 810.184 4.12748 810.593 4.15469 811.011C4.18191 811.43 4.12187 811.849 3.97804 812.245C3.83421 812.641 3.60946 813.006 3.31678 813.319Z" fill="#4ED0EF"/>
<path d="M3.31678 813.319C2.87992 813.786 2.30802 814.119 1.67308 814.276C1.03815 814.434 0.368564 814.408 -0.251361 814.204C-0.871287 813.999 -1.41384 813.624 -1.81071 813.126C-2.20757 812.627 -2.44102 812.028 -2.48164 811.404C-2.52226 810.78 -2.36825 810.158 -2.03899 809.617C-1.70973 809.075 -1.21995 808.639 -0.631313 808.363C-0.0426756 808.087 0.618503 807.983 1.26897 808.064C1.91944 808.146 2.53012 808.409 3.02413 808.82C3.3551 809.096 3.62543 809.432 3.81949 809.808C4.01355 810.184 4.12748 810.593 4.15469 811.011C4.18191 811.43 4.12187 811.849 3.97804 812.245C3.83421 812.641 3.60946 813.006 3.31678 813.319Z" fill="#4ED0EF"/>
<path d="M15.4059 823.679C14.9677 824.147 14.3938 824.481 13.7566 824.638C13.1195 824.795 12.4479 824.768 11.8268 824.561C11.2058 824.353 10.6632 823.975 10.2678 823.473C9.87248 822.972 9.64211 822.369 9.60589 821.743C9.56968 821.116 9.72926 820.493 10.0644 819.953C10.3996 819.413 10.8952 818.98 11.4886 818.709C12.082 818.438 12.7465 818.341 13.3978 818.43C14.0492 818.519 14.6581 818.791 15.1476 819.21C15.8019 819.771 16.1965 820.556 16.2449 821.394C16.2933 822.231 15.9916 823.053 15.4059 823.679V823.679Z" fill="#4ED0EF"/>
<path d="M15.4059 823.679C14.9677 824.147 14.3938 824.481 13.7566 824.638C13.1195 824.795 12.4479 824.768 11.8268 824.561C11.2058 824.353 10.6632 823.975 10.2678 823.473C9.87248 822.972 9.64211 822.369 9.60589 821.743C9.56968 821.116 9.72926 820.493 10.0644 819.953C10.3996 819.413 10.8952 818.98 11.4886 818.709C12.082 818.438 12.7465 818.341 13.3978 818.43C14.0492 818.519 14.6581 818.791 15.1476 819.21C15.8019 819.771 16.1965 820.556 16.2449 821.394C16.2933 822.231 15.9916 823.053 15.4059 823.679V823.679Z" fill="#4ED0EF"/>
<path d="M27.4947 834.04C27.0566 834.508 26.4826 834.841 25.8455 834.998C25.2084 835.155 24.5368 835.128 23.9157 834.921C23.2946 834.714 22.7521 834.335 22.3567 833.833C21.9614 833.332 21.731 832.73 21.6948 832.103C21.6585 831.476 21.8181 830.854 22.1533 830.314C22.4884 829.774 22.9841 829.341 23.5775 829.07C24.1709 828.798 24.8353 828.701 25.4867 828.79C26.138 828.88 26.747 829.151 27.2364 829.57C27.8908 830.131 28.2854 830.916 28.3338 831.754C28.3822 832.592 28.0805 833.414 27.4947 834.04V834.04Z" fill="#4ED0EF"/>
<path d="M27.4947 834.04C27.0566 834.508 26.4826 834.841 25.8455 834.998C25.2084 835.155 24.5368 835.128 23.9157 834.921C23.2946 834.714 22.7521 834.335 22.3567 833.833C21.9614 833.332 21.731 832.73 21.6948 832.103C21.6585 831.476 21.8181 830.854 22.1533 830.314C22.4884 829.774 22.9841 829.341 23.5775 829.07C24.1709 828.798 24.8353 828.701 25.4867 828.79C26.138 828.88 26.747 829.151 27.2364 829.57C27.8908 830.131 28.2854 830.916 28.3338 831.754C28.3822 832.592 28.0805 833.414 27.4947 834.04V834.04Z" fill="#4ED0EF"/>
<path d="M39.5838 844.4C39.1454 844.868 38.5709 845.202 37.9332 845.359C37.2955 845.516 36.6234 845.488 36.0021 845.28C35.3807 845.072 34.8382 844.693 34.4432 844.191C34.0482 843.688 33.8187 843.085 33.7836 842.458C33.7485 841.831 33.9094 841.208 34.2461 840.668C34.5827 840.128 35.0798 839.696 35.6744 839.426C36.269 839.156 36.9343 839.061 37.5858 839.152C38.2373 839.243 38.8458 839.517 39.3341 839.938C39.9876 840.498 40.3811 841.283 40.4279 842.12C40.4748 842.956 40.1711 843.777 39.5838 844.4V844.4Z" fill="#4ED0EF"/>
<path d="M39.5838 844.4C39.1454 844.868 38.5709 845.202 37.9332 845.359C37.2955 845.516 36.6234 845.488 36.0021 845.28C35.3807 845.072 34.8382 844.693 34.4432 844.191C34.0482 843.688 33.8187 843.085 33.7836 842.458C33.7485 841.831 33.9094 841.208 34.2461 840.668C34.5827 840.128 35.0798 839.696 35.6744 839.426C36.269 839.156 36.9343 839.061 37.5858 839.152C38.2373 839.243 38.8458 839.517 39.3341 839.938C39.9876 840.498 40.3811 841.283 40.4279 842.12C40.4748 842.956 40.1711 843.777 39.5838 844.4V844.4Z" fill="#4ED0EF"/>
<path d="M4.35665 835.404C3.91714 835.871 3.34249 836.202 2.70534 836.357C2.06819 836.512 1.39718 836.484 0.77715 836.275C0.15712 836.066 -0.384076 835.687 -0.778001 835.185C-1.17193 834.683 -1.40089 834.08 -1.43593 833.454C-1.47098 832.828 -1.31053 832.206 -0.974885 831.667C-0.639238 831.128 -0.143463 830.695 0.449744 830.425C1.04295 830.154 1.70695 830.058 2.35777 830.147C3.00859 830.237 3.617 830.508 4.10606 830.927C4.76188 831.489 5.15671 832.277 5.20371 833.116C5.2507 833.956 4.94601 834.779 4.35665 835.404V835.404Z" fill="#4ED0EF"/>
<path d="M4.35665 835.404C3.91714 835.871 3.34249 836.202 2.70534 836.357C2.06819 836.512 1.39718 836.484 0.77715 836.275C0.15712 836.066 -0.384076 835.687 -0.778001 835.185C-1.17193 834.683 -1.40089 834.08 -1.43593 833.454C-1.47098 832.828 -1.31053 832.206 -0.974885 831.667C-0.639238 831.128 -0.143463 830.695 0.449744 830.425C1.04295 830.154 1.70695 830.058 2.35777 830.147C3.00859 830.237 3.617 830.508 4.10606 830.927C4.76188 831.489 5.15671 832.277 5.20371 833.116C5.2507 833.956 4.94601 834.779 4.35665 835.404V835.404Z" fill="#4ED0EF"/>
<path d="M16.4458 845.765C16.0063 846.231 15.4316 846.563 14.7945 846.718C14.1573 846.873 13.4863 846.844 12.8663 846.635C12.2462 846.426 11.705 846.047 11.3111 845.545C10.9172 845.043 10.6882 844.441 10.6532 843.815C10.6181 843.188 10.7786 842.566 11.1142 842.027C11.4499 841.488 11.9456 841.056 12.5389 840.785C13.1321 840.515 13.7961 840.418 14.4469 840.508C15.0977 840.597 15.7061 840.868 16.1952 841.287C16.851 841.849 17.2458 842.637 17.2928 843.477C17.3398 844.316 17.0351 845.139 16.4458 845.765V845.765Z" fill="#4ED0EF"/>
<path d="M16.4458 845.765C16.0063 846.231 15.4316 846.563 14.7945 846.718C14.1573 846.873 13.4863 846.844 12.8663 846.635C12.2462 846.426 11.705 846.047 11.3111 845.545C10.9172 845.043 10.6882 844.441 10.6532 843.815C10.6181 843.188 10.7786 842.566 11.1142 842.027C11.4499 841.488 11.9456 841.056 12.5389 840.785C13.1321 840.515 13.7961 840.418 14.4469 840.508C15.0977 840.597 15.7061 840.868 16.1952 841.287C16.851 841.849 17.2458 842.637 17.2928 843.477C17.3398 844.316 17.0351 845.139 16.4458 845.765V845.765Z" fill="#4ED0EF"/>
<path d="M28.5349 856.125C28.095 856.592 27.5198 856.924 26.8821 857.078C26.2445 857.233 25.5729 857.204 24.9526 856.995C24.3323 856.785 23.7912 856.405 23.3976 855.902C23.0041 855.399 22.7759 854.796 22.742 854.169C22.7081 853.543 22.8699 852.921 23.207 852.382C23.5442 851.843 24.0414 851.411 24.6358 851.142C25.2302 850.873 25.895 850.778 26.546 850.869C27.197 850.961 27.805 851.234 28.2929 851.655C28.6172 851.933 28.8808 852.269 29.0685 852.645C29.2563 853.02 29.3645 853.427 29.387 853.842C29.4095 854.257 29.3458 854.673 29.1996 855.065C29.0533 855.456 28.8274 855.817 28.5349 856.125V856.125Z" fill="#4ED0EF"/>
<path d="M28.5349 856.125C28.095 856.592 27.5198 856.924 26.8821 857.078C26.2445 857.233 25.5729 857.204 24.9526 856.995C24.3323 856.785 23.7912 856.405 23.3976 855.902C23.0041 855.399 22.7759 854.796 22.742 854.169C22.7081 853.543 22.8699 852.921 23.207 852.382C23.5442 851.843 24.0414 851.411 24.6358 851.142C25.2302 850.873 25.895 850.778 26.546 850.869C27.197 850.961 27.805 851.234 28.2929 851.655C28.6172 851.933 28.8808 852.269 29.0685 852.645C29.2563 853.02 29.3645 853.427 29.387 853.842C29.4095 854.257 29.3458 854.673 29.1996 855.065C29.0533 855.456 28.8274 855.817 28.5349 856.125V856.125Z" fill="#4ED0EF"/>
</g>
</g>
<defs>
<linearGradient id="paint0_linear" x1="147.958" y1="106.578" x2="271.883" y2="716.705" gradientUnits="userSpaceOnUse">
<stop stop-color="#CB3BBB"/>
<stop offset="0.639636" stop-color="#C4C4C4" stop-opacity="0"/>
</linearGradient>
<linearGradient id="paint1_linear" x1="127.062" y1="113.994" x2="166.121" y2="422.979" gradientUnits="userSpaceOnUse">
<stop stop-color="#4BD0EF"/>
<stop offset="1" stop-color="#C4C4C4" stop-opacity="0"/>
</linearGradient>
<clipPath id="clip0">
<rect width="86.1187" height="70.6879" fill="white" transform="matrix(0.75931 0.650729 -0.685816 0.727776 -7.54053 652.043)"/>
</clipPath>
<clipPath id="clip1">
<rect width="86.1187" height="70.6879" fill="white" transform="matrix(0.75931 0.650729 -0.685815 0.727776 53.4197 704.286)"/>
</clipPath>
<clipPath id="clip2">
<rect width="86.1187" height="70.6879" fill="white" transform="matrix(0.75931 0.650729 -0.685815 0.727776 -51.521 698.714)"/>
</clipPath>
<clipPath id="clip3">
<rect width="86.1187" height="70.6879" fill="white" transform="matrix(0.75931 0.650729 -0.685815 0.727776 9.43921 750.957)"/>
</clipPath>
</defs>
</svg>
